<svg xmlns="http://www.w3.org/2000/svg" viewBox="0 0 512 512" id="bell">
  <path fill="#46cc8d" d="M503.92 179.97c-4.11 2.33-14.7 9.48-18.49 23.28-.17.59-.32 1.19-.46 1.8a37.641 37.641 0 0 0 3.62 25.75c.4.78.84 1.56 1.31 2.32q.135.24.27.45c.25.41.52.82.79 1.22a1.14 1.14 0 0 1-1.23 1.74c-5.34-1.35-15.79-2.81-26.33 2.7-12.05 6.3-19.64 19.33-19.81 33.68a1.15 1.15 0 0 1-1.29 1.15c-16.57-2.24-35.03-6.27-52.45-9.32-1.53-.26-3.06-.52-4.57-.77h-.01c-2.74-.46-5.45-.88-8.11-1.26q-1.395-.21-2.76-.39a1.093 1.093 0 0 1-.95-.9c-.08-.42-.15-.84-.24-1.26-.08-.46-.17-.92-.26-1.39-.21-1.15-.45-2.32-.69-3.5-4.01-19.83-10.19-41.74-13.75-61.13a1.15 1.15 0 0 1 1.08-1.34c14.34-.85 26.99-9.05 32.72-21.38 5-10.79 3.05-21.15 1.44-26.43a1.142 1.142 0 0 1 1.68-1.31c5.12 3.11 16.34 8.31 30 4.58 14.81-4.05 21.92-15.72 24.15-20.11a1.135 1.135 0 0 1 1.84-.28 37.717 37.717 0 0 0 13.9 9.1 32.974 32.974 0 0 0 12.25 1.99 34.42 34.42 0 0 0 17.05-5.22 1.124 1.124 0 0 1 1.58 1.51 34.427 34.427 0 0 0-4.41 17.27c.24 13.7 8.82 22.54 12.32 25.61a1.128 1.128 0 0 1-.19 1.84Z"></path>
  <path fill="#00c27a" d="M372.95 258.77c4.23 1.86 10.17 4.46 12.32 5.2-2.74-.46-5.45-.88-8.11-1.26-1.38-.86-2.7-1.72-3.95-2.55q-2.61-1.74-4.83-3.35c.18.03 2.08.87 4.57 1.96zm12.33 5.2c1.51.25 3.04.51 4.57.77a15.26 15.26 0 0 1-4.57-.77zm118.64-84c-4.11 2.33-14.7 9.48-18.49 23.28a11.295 11.295 0 0 0-.46 1.8 40.945 40.945 0 0 0 3.62 25.75c.4.78.84 1.56 1.31 2.32q.12.225.27.45c.25.41.52.82.79 1.22a1.14 1.14 0 0 1-1.23 1.74c-5.34-1.35-15.79-2.81-26.33 2.7-12.05 6.3-19.64 19.33-19.81 33.68a1.15 1.15 0 0 1-1.29 1.15c-16.57-2.24-35.03-6.27-52.45-9.32 19.2.4 45.7-30.96 47.53-33.17 26.3-31.63 33.27-68.98 35.1-92.86a32.446 32.446 0 0 0 5.09.25 34.42 34.42 0 0 0 17.05-5.22 1.124 1.124 0 0 1 1.58 1.51 34.427 34.427 0 0 0-4.41 17.27c.24 13.7 8.82 22.54 12.32 25.61a1.128 1.128 0 0 1-.19 1.84z"></path>
  <path fill="#46cc8d" d="M138.551 261.416c3.878-21.374 11.01-45.851 14.937-67.271a1.148 1.148 0 0 0-1.083-1.342c-14.332-.85-26.987-9.05-32.712-21.385-5.007-10.785-3.053-21.152-1.445-26.427a1.144 1.144 0 0 0-1.682-1.313c-5.112 3.108-16.34 8.31-29.995 4.58-14.806-4.046-21.926-15.714-24.153-20.112a1.134 1.134 0 0 0-1.833-.28c-3.228 3.354-12.467 11.508-26.157 11.095a34.354 34.354 0 0 1-17.043-5.225 1.13 1.13 0 0 0-1.589 1.515 34.354 34.354 0 0 1 4.413 17.271c-.235 13.695-8.817 22.537-12.32 25.603a1.134 1.134 0 0 0 .193 1.845c4.288 2.432 15.606 10.096 18.946 25.077 3.08 13.815-2.646 24.786-5.992 29.744a1.144 1.144 0 0 0 1.232 1.743c5.345-1.357 15.793-2.818 26.329 2.693 12.05 6.302 19.642 19.33 19.813 33.688a1.148 1.148 0 0 0 1.29 1.144c21.581-2.91 46.368-8.875 67.902-11.737a1.105 1.105 0 0 0 .95-.906zM340.03 107.11c-6.09 3.43-16.95 11.23-21.79 25.5-5.54 16.31-1.1 34.9 11.29 48.21a1.46 1.46 0 0 1-.18 2.18c-22.33 16.2-50.27 32.41-72.52 48.61a1.38 1.38 0 0 1-1.66 0q-3.825-2.79-7.87-5.58c-20.72-14.34-44.88-28.69-64.65-43.03a1.46 1.46 0 0 1-.18-2.18c12.39-13.31 16.83-31.9 11.29-48.21-4.84-14.27-15.7-22.07-21.79-25.5a1.447 1.447 0 0 1 .4-2.67c7.4-1.62 22.25-6.67 31.5-22.03 10.04-16.66 6.36-33.58 4.56-39.56a1.433 1.433 0 0 1 1.44-1.86c5.89.25 21.49-.35 33.68-12.71a43.382 43.382 0 0 0 11.06-19.69 1.432 1.432 0 0 1 2.78 0 43.382 43.382 0 0 0 11.06 19.69 42.218 42.218 0 0 0 20.61 11.44 48.418 48.418 0 0 0 13.07 1.27 1.433 1.433 0 0 1 1.44 1.86c-1.8 5.98-5.48 22.9 4.56 39.56 9.25 15.36 24.1 20.41 31.5 22.03a1.447 1.447 0 0 1 .4 2.67z"></path>
  <path fill="#00c27a" d="M340.03 107.11c-6.09 3.43-16.95 11.23-21.79 25.5-5.54 16.31-1.1 34.9 11.29 48.21a1.46 1.46 0 0 1-.18 2.18c-22.33 16.2-50.27 32.41-72.52 48.61a1.38 1.38 0 0 1-1.66 0q-3.825-2.79-7.87-5.58a213.475 213.475 0 0 0 43.98-92.25 212.558 212.558 0 0 0-2.22-94.06 48.418 48.418 0 0 0 13.07 1.27 1.433 1.433 0 0 1 1.44 1.86c-1.8 5.98-5.48 22.9 4.56 39.56 9.25 15.36 24.1 20.41 31.5 22.03a1.447 1.447 0 0 1 .4 2.67Z"></path>
  <circle cx="116.141" cy="446.648" r="47.097" fill="#fac600"></circle>
  <path fill="#e8b800" d="M138.835 405.378a47.079 47.079 0 0 0-12.72-4.761 47.099 47.099 0 0 1-42.727 79.875 47.098 47.098 0 1 0 55.447-75.114Z"></path>
  <path fill="#fed402" d="M256.68 313.82c0 2.06-.09 4.13-.29 6.2-.1 1.09-.23 2.19-.39 3.28a67.028 67.028 0 0 1-6.96 21.61 177.49 177.49 0 0 0-18.16 107.78l3.92 26.7-7.56 13.76L17.37 377.74l7.56-13.76L49.58 353a177.431 177.431 0 0 0 77.14-66.3q2.145-3.33 4.14-6.78h.01a67.446 67.446 0 0 1 90.85-25.26c.94.52 1.87 1.06 2.78 1.62a66.648 66.648 0 0 1 12.78 10.14 67.488 67.488 0 0 1 18.27 35.15 1.086 1.086 0 0 1 .04.26c.17.83.3 1.67.41 2.51a66.638 66.638 0 0 1 .68 9.48Z"></path>
  <path fill="#fac600" d="M256 304.34c-.11-.84-.24-1.68-.41-2.51a1.086 1.086 0 0 0-.04-.26 67.488 67.488 0 0 0-18.27-35.15 66.688 66.688 0 0 0-10.72-8.793 61.023 61.023 0 0 1-.17 2.393c-.1 1.09-.23 2.19-.39 3.28a67.028 67.028 0 0 1-6.96 21.61 177.528 177.528 0 0 0-11.203 26.61c-1.825 5.56-6.121 15.228-8.847 55.33q-.415 6.099-.777 13.016a32.843 32.843 0 0 1-48.625 27.08l-98.976-54.429c-.346.157-.685.328-1.032.483l-25.827 11.523-6.383 13.217 209.87 115.41 7.949-12.212-4.309-28.248a177.49 177.49 0 0 1 18.16-107.78A67.028 67.028 0 0 0 256 323.3c.16-1.09.29-2.19.39-3.28.2-2.07.29-4.14.29-6.2a66.638 66.638 0 0 0-.68-9.48Z"></path>
  <rect width="258.882" height="29.154" x="-6.599" y="419.884" fill="#fed402" rx="14.263" transform="rotate(28.806 122.842 434.461)"></rect>
  <circle cx="395.859" cy="446.648" r="47.097" fill="#fac600"></circle>
  <path fill="#e8b800" d="M437.128 423.954a47.091 47.091 0 0 0-60.637-20.223 47.096 47.096 0 0 1 21.178 88.34 47.625 47.625 0 0 1-3.326 1.648 47.095 47.095 0 0 0 42.785-69.765Z"></path>
  <path fill="#fed402" d="M494.63 377.74 284.76 493.15l-7.613-12.623 3.973-27.837a177.49 177.49 0 0 0-18.16-107.78A67.028 67.028 0 0 1 256 323.3c-.16-1.09-.29-2.19-.39-3.28-.2-2.07-.29-4.14-.29-6.2a66.638 66.638 0 0 1 .68-9.48c.11-.84.24-1.68.41-2.51a1.086 1.086 0 0 1 .04-.26 67.488 67.488 0 0 1 18.27-35.15 66.648 66.648 0 0 1 12.78-10.14c.91-.56 1.84-1.1 2.78-1.62a67.446 67.446 0 0 1 90.85 25.26h.01q1.995 3.45 4.14 6.78a177.431 177.431 0 0 0 77.14 66.3l24.65 10.98Z"></path>
  <path fill="#fac600" d="M274.72 259.02v37l-18.27 5.55-.45.14-.41.12-29.88 9.09-79.63 24.21a14.999 14.999 0 0 1-19.36-14.35V286.7q2.145-3.33 4.14-6.78h.01a67.446 67.446 0 0 1 90.85-25.26c.94.52 1.87 1.06 2.78 1.62v-6.26a14.89 14.89 0 0 1 1.21-5.9l30.29 9.21Z"></path>
  <path fill="#fac600" d="M488.177 364.533 462.42 353a177.431 177.431 0 0 1-77.14-66.3q-2.145-3.33-4.14-6.78h-.01q-.85-1.468-1.764-2.875c-.205-.317-.424-.619-.634-.93-.412-.614-.82-1.23-1.249-1.826-.265-.368-.545-.72-.816-1.082-.391-.52-.777-1.047-1.181-1.554-.303-.38-.621-.744-.931-1.116-.39-.468-.775-.941-1.175-1.397-.334-.379-.68-.741-1.021-1.111-.395-.428-.785-.862-1.189-1.279-.361-.372-.736-.729-1.105-1.092-.399-.393-.793-.79-1.2-1.171-.39-.364-.789-.711-1.185-1.064-.403-.36-.803-.725-1.214-1.074-.414-.352-.838-.687-1.259-1.028-.407-.33-.812-.663-1.226-.982-.438-.338-.885-.66-1.33-.986-.411-.3-.82-.604-1.236-.895-.463-.323-.934-.63-1.403-.94-.411-.272-.82-.547-1.237-.809-.488-.308-.984-.601-1.48-.896-.409-.242-.816-.488-1.229-.721a67.545 67.545 0 0 0-1.552-.844c-.407-.216-.812-.434-1.223-.642a67.276 67.276 0 0 0-1.626-.788c-.4-.19-.8-.38-1.204-.561a67.75 67.75 0 0 0-1.702-.73c-.394-.164-.787-.329-1.184-.485-.587-.232-1.179-.451-1.772-.666-.386-.14-.772-.28-1.16-.413a67.857 67.857 0 0 0-1.846-.598 67.55 67.55 0 0 0-1.129-.343 67.724 67.724 0 0 0-1.918-.526 67.846 67.846 0 0 0-1.092-.276q-.991-.24-1.99-.449-.526-.11-1.054-.214-1.026-.2-2.058-.366-.505-.082-1.01-.156-1.061-.156-2.127-.278-.481-.055-.964-.103-1.094-.11-2.19-.184c-.306-.02-.61-.038-.916-.054q-1.126-.06-2.255-.085c-.287-.006-.573-.007-.86-.01a67.22 67.22 0 0 0-2.32.02c-.266.008-.533.02-.8.03-.793.03-1.586.073-2.38.132-.247.018-.494.041-.741.063-.813.07-1.625.15-2.437.25-.226.027-.452.06-.678.09-.832.11-1.662.233-2.492.375-.204.035-.407.075-.611.112-.851.154-1.7.32-2.549.508-.178.04-.356.084-.534.125-.87.2-1.74.414-2.606.65-.151.041-.302.088-.453.13-.89.25-1.78.513-2.664.801-.122.04-.244.085-.365.125-.912.302-1.82.62-2.724.964-.089.034-.177.072-.267.106-.934.36-1.864.737-2.788 1.142-.05.021-.1.046-.149.067q-1.443.636-2.869 1.34c-.847.421-1.691.85-2.527 1.309-.94.52-1.87 1.06-2.78 1.62v-6.26a14.89 14.89 0 0 0-1.21-5.9L256 253.33l-18.72 5.69v37l18.27 5.55.45.14.41.12 29.88 9.09 64.506 19.612a61.394 61.394 0 0 1 26.286 16.067l.363.374a34.389 34.389 0 0 1-5.212 52.22l-92.625 63.795-2.408 16.402 7.56 13.76 209.87-115.41-6.453-13.207Z"></path>
  <path fill="#fac600" d="M287.5 250.02v55a15.003 15.003 0 0 1-15 15h-33a15.003 15.003 0 0 1-15-15v-55a15.003 15.003 0 0 1 15-15h33a15.003 15.003 0 0 1 15 15Z"></path>
  <path fill="#ac2538" d="M327.252 270.016H287.5a7.5 7.5 0 1 1 0-15h39.752a7.5 7.5 0 0 1 0 15zm-102.752 0h-39.752a7.5 7.5 0 1 1 0-15H224.5a7.5 7.5 0 0 1 0 15z"></path>
  <path fill="#e53950" d="M274.718 281.016 146.08 320.128a15 15 0 0 1-19.363-14.35v-86.523a15 15 0 0 1 19.363-14.351l128.637 39.112Z"></path>
  <path fill="#e53950" d="M274.72 244.02v37l-2.22.67-59.4 18.06-67.02 20.38a14.999 14.999 0 0 1-19.36-14.35v-86.53a14.999 14.999 0 0 1 19.36-14.35l67.02 20.38 59.4 18.06Z"></path>
  <path fill="#e53950" d="m237.282 281.016 128.637 39.112a15 15 0 0 0 19.363-14.35v-86.523a15 15 0 0 0-19.363-14.351l-128.637 39.112Z"></path>
  <path fill="#ca2e43" d="m365.919 204.904-10.637 3.234v35.656a38.704 38.704 0 0 1-49.963 37.03l-68.037-20.686v20.878l128.637 39.112a15 15 0 0 0 19.363-14.35v-86.523a15 15 0 0 0-19.363-14.351Z"></path>
  <path fill="#ca2e43" d="M272.5 243.34v38.35l-59.4 18.06a14.88 14.88 0 0 1-3.6-9.73v-55a14.907 14.907 0 0 1 3.6-9.74Z"></path>
  <rect width="63" height="85" x="224.5" y="220.016" fill="#e53950" rx="15"></rect>
  <path fill="#ca2e43" d="M272.5 220.016v34.922a35.078 35.078 0 0 1-35.078 35.078H224.5a15 15 0 0 0 15 15h33a15 15 0 0 0 15-15v-55a15 15 0 0 0-15-15Z"></path>
  <rect width="258.882" height="29.154" x="259.717" y="419.884" fill="#fed402" rx="14.263" transform="rotate(151.194 389.158 434.461)"></rect>
  <path fill="#282828" d="M509 368.198a21.824 21.824 0 0 0-19.367-11.285l-24.162-10.77a169.514 169.514 0 0 1-72.69-61.701v-11.557c4.794.87 9.644 1.792 14.402 2.7 11.406 2.179 23.2 4.432 34.111 5.902a8.648 8.648 0 0 0 9.793-8.487c.14-11.715 6.19-22.11 15.79-27.132 8.291-4.335 16.72-3.158 21.009-2.068a8.644 8.644 0 0 0 9.293-13.208c-2.869-4.252-7.32-13.014-4.889-23.917 2.647-11.871 11.6-18.071 15.33-20.189a8.633 8.633 0 0 0 1.428-14.01c-2.874-2.514-9.579-9.505-9.76-20.085a26.63 26.63 0 0 1 3.474-13.51 8.63 8.63 0 0 0-12.093-11.53 26.62 26.62 0 0 1-13.325 4.109c-10.608.304-17.878-6.046-20.526-8.798a8.633 8.633 0 0 0-13.93 2.092c-1.934 3.822-7.702 13.058-19.438 16.265-10.776 2.944-19.738-1.087-24.12-3.753a8.644 8.644 0 0 0-12.754 9.909c1.29 4.23 2.866 12.595-1.073 21.08-4.561 9.828-14.66 16.363-26.354 17.057a8.648 8.648 0 0 0-8.016 10.181c.336 1.83.704 3.734 1.108 5.726l-62.744 19.077c-.327-.378-.672-.74-1.023-1.096 2.987-1.94 5.982-3.874 8.931-5.777 12.341-7.963 25.102-16.196 36.35-24.359a8.954 8.954 0 0 0 1.266-13.359c-10.618-11.402-14.327-26.995-9.68-40.692 4.025-11.858 13.234-18.478 18.368-21.37a8.95 8.95 0 0 0-2.475-16.537c-6.663-1.458-18.991-5.81-26.685-18.575-8.368-13.885-5.446-28.07-3.802-33.521a8.937 8.937 0 0 0-8.938-11.523c-5.102.222-18.042-.361-28.025-10.475a35.705 35.705 0 0 1-9.138-16.323 8.933 8.933 0 0 0-17.296.003 35.705 35.705 0 0 1-9.138 16.32c-9.983 10.114-22.93 10.699-28.03 10.475a8.937 8.937 0 0 0-8.933 11.52c1.645 5.454 4.566 19.639-3.802 33.524-7.694 12.766-20.022 17.117-26.69 18.576a8.95 8.95 0 0 0-2.468 16.537c5.132 2.891 14.341 9.511 18.365 21.369 4.648 13.697.939 29.29-9.678 40.691a8.954 8.954 0 0 0 1.263 13.36c11.247 8.16 24.006 16.393 36.344 24.354 2.952 1.905 5.95 3.84 8.94 5.782-.352.356-.696.718-1.024 1.096l-62.743-19.077c.403-1.993.772-3.898 1.108-5.73a8.648 8.648 0 0 0-8.016-10.177c-11.695-.694-21.794-7.229-26.355-17.055-3.939-8.487-2.363-16.852-1.073-21.082a8.644 8.644 0 0 0-12.753-9.91c-4.383 2.665-13.346 6.696-24.121 3.753-11.735-3.205-17.504-12.442-19.439-16.264a8.634 8.634 0 0 0-13.93-2.093c-2.647 2.753-9.946 9.116-20.524 8.799a26.63 26.63 0 0 1-13.328-4.108 8.63 8.63 0 0 0-12.09 11.533 26.62 26.62 0 0 1 3.473 13.505c-.181 10.58-6.886 17.572-9.758 20.085a8.634 8.634 0 0 0 1.43 14.014c3.726 2.115 12.68 8.315 15.326 20.186 2.43 10.903-2.02 19.665-4.89 23.919a8.645 8.645 0 0 0 9.296 13.206c4.286-1.091 12.716-2.268 21.007 2.068 9.6 5.022 15.65 15.417 15.79 27.132a8.639 8.639 0 0 0 9.79 8.487c10.914-1.47 22.708-3.723 34.113-5.902 4.758-.908 9.609-1.83 14.404-2.7v11.557a169.52 169.52 0 0 1-72.69 61.702l-24.16 10.768a21.831 21.831 0 0 0-19.368 11.281l-.305.554a21.79 21.79 0 0 0 8.584 29.557l53.638 29.495a54.872 54.872 0 0 0 24.921 66.69 54.064 54.064 0 0 0 26.113 6.697 54.908 54.908 0 0 0 43.546-21.378l53.633 29.493a21.775 21.775 0 0 0 29.557-8.585l.302-.55a21.622 21.622 0 0 0 1.83-16.556 21.841 21.841 0 0 0-2.675-5.842l-3.848-26.172a168.98 168.98 0 0 1 17.4-103.229c.106-.202.2-.408.304-.61.103.202.198.408.303.61a168.98 168.98 0 0 1 17.401 103.229l-3.847 26.172a21.843 21.843 0 0 0-2.675 5.842 21.62 21.62 0 0 0 1.829 16.556l.303.55a21.776 21.776 0 0 0 29.556 8.585l53.633-29.493a54.905 54.905 0 0 0 43.546 21.378 54.076 54.076 0 0 0 26.115-6.699 54.87 54.87 0 0 0 24.919-66.689l53.638-29.495a21.79 21.79 0 0 0 8.581-29.56ZM399.108 174.571a42.449 42.449 0 0 0 3.87-19.405 44.001 44.001 0 0 0 24.425.322 45.454 45.454 0 0 0 24.67-17.184 41.426 41.426 0 0 0 25.723 8.15 40.403 40.403 0 0 0 6.99-.829 40.484 40.484 0 0 0-.496 7.022 41.55 41.55 0 0 0 9.357 25.308 45.457 45.457 0 0 0-15.998 25.456 44.015 44.015 0 0 0 1.478 24.383 42.466 42.466 0 0 0-19.202 4.783 44.99 44.99 0 0 0-23.227 33.078c-8.652-1.356-17.797-3.103-26.7-4.803-5.681-1.085-11.493-2.188-17.218-3.204v-4.69l58.2-61.02a7.5 7.5 0 1 0-10.854-10.354l-47.346 49.64v-11.973a22.547 22.547 0 0 0-18.201-22.101 44.36 44.36 0 0 0 24.53-22.579Zm-71.858 80.44h-32.252v-20c0-.236-.01-.469-.018-.703l73.119-22.233a7.5 7.5 0 0 1 9.681 7.176v67.08q-.018.37 0 .742v18.7a7.5 7.5 0 0 1-9.681 7.175l-73.119-22.231c.007-.235.018-.469.018-.705v-20h32.252a7.5 7.5 0 0 0 0-15Zm-104.534-54.198c-10.254-6.615-20.801-13.42-30.398-20.138 10.963-14.823 14.264-33.615 8.54-50.483a52.314 52.314 0 0 0-15.034-22.357 54.102 54.102 0 0 0 24.47-21.562 55.943 55.943 0 0 0 7.036-38.04 51.044 51.044 0 0 0 31.558-14.684 49.587 49.587 0 0 0 7.11-9.148 49.587 49.587 0 0 0 7.11 9.148 51.043 51.043 0 0 0 31.559 14.684 55.941 55.941 0 0 0 7.035 38.04 54.115 54.115 0 0 0 24.47 21.563 52.306 52.306 0 0 0-15.034 22.356c-5.723 16.867-2.422 35.66 8.54 50.483-9.598 6.719-20.15 13.526-30.405 20.144-5.936 3.83-12.042 7.776-17.957 11.693h-7.818V100.109a7.5 7.5 0 1 0-15 0v112.403h-7.817c-5.917-3.919-12.027-7.866-17.965-11.699Zm-120.717 60.039c-8.904 1.7-18.048 3.447-26.7 4.803a44.996 44.996 0 0 0-23.228-33.078 42.457 42.457 0 0 0-19.202-4.783 44.01 44.01 0 0 0 1.478-24.383 45.459 45.459 0 0 0-15.998-25.456 41.552 41.552 0 0 0 9.357-25.309 40.48 40.48 0 0 0-.496-7.021 40.403 40.403 0 0 0 6.99.828 41.48 41.48 0 0 0 25.722-8.15 45.45 45.45 0 0 0 24.67 17.184 44.01 44.01 0 0 0 24.427-.322 42.469 42.469 0 0 0 3.869 19.407 44.358 44.358 0 0 0 24.528 22.577 22.55 22.55 0 0 0-18.2 22.102v11.974L71.87 181.584a7.5 7.5 0 1 0-10.854 10.353l58.2 61.021v4.69c-5.725 1.016-11.537 2.119-17.217 3.204Zm-4.936 220.493a39.811 39.811 0 0 1-18.802-46.207l67.877 37.325a39.781 39.781 0 0 1-49.075 8.882Zm132.78 11.594-.302.55a6.775 6.775 0 0 1-9.185 2.667L18.506 385.16a6.77 6.77 0 0 1-2.67-9.18l.304-.554a6.762 6.762 0 0 1 9.185-2.667l201.851 110.997a6.762 6.762 0 0 1 2.667 9.184Zm12.547-151.498a183.888 183.888 0 0 0-18.937 112.336l1.73 11.763L41.773 364.684l10.858-4.84a184.448 184.448 0 0 0 66.851-50.626 22.538 22.538 0 0 0 22.166 19.073 22.724 22.724 0 0 0 6.612-.991l17.166-5.219a7.5 7.5 0 1 0-4.363-14.352l-17.166 5.22a7.5 7.5 0 0 1-9.682-7.176V219.251a7.5 7.5 0 0 1 9.682-7.176l73.118 22.233c-.007.234-.018.467-.018.704v20h-32.252a7.5 7.5 0 1 0 0 15h32.252v20c0 .236.01.47.018.705l-23.417 7.12a7.5 7.5 0 1 0 4.363 14.351l24.538-7.46a22.45 22.45 0 0 0 16.998 7.784h9.66a59.598 59.598 0 0 1-6.768 28.93Zm13.366-43.93h-16.258a7.508 7.508 0 0 1-7.5-7.5v-55a7.508 7.508 0 0 1 7.5-7.5h15.765c.242.024.487.038.735.038s.493-.014.735-.037h15.765a7.508 7.508 0 0 1 7.5 7.5v55a7.508 7.508 0 0 1-7.5 7.5h-16.101a7.351 7.351 0 0 0-.64 0Zm159.18 183.832a39.779 39.779 0 0 1-49.078-8.88l67.877-37.325a39.81 39.81 0 0 1-18.8 46.205Zm78.555-96.184-201.85 110.997a6.774 6.774 0 0 1-9.185-2.667l-.303-.55a6.763 6.763 0 0 1 2.667-9.184l146.023-80.297a7.5 7.5 0 0 0-7.228-13.145L286.814 465.54l1.729-11.763a183.892 183.892 0 0 0-18.937-112.336 59.937 59.937 0 0 1-5.91-17.447c-.044-.25-.08-.501-.12-.752a74.763 74.763 0 0 0 .578-10.73h8.344a22.45 22.45 0 0 0 16.998-7.784l74.24 22.572a22.725 22.725 0 0 0 6.612.991 22.537 22.537 0 0 0 22.165-19.073 184.44 184.44 0 0 0 66.851 50.627l10.858 4.839-17.648 9.705a7.5 7.5 0 0 0 7.227 13.144l26.87-14.775a6.761 6.761 0 0 1 9.187 2.672l.3.544a6.772 6.772 0 0 1-2.667 9.185Z"></path>
</svg>
