<svg xmlns="http://www.w3.org/2000/svg" width="96" height="96" fill="none" id="candy-cane">
  <path fill="#24E287" d="M69.88 25.411c4.573 0 5.716 6.294 5.716 9.44 0 3.148-1.802 7.577 2.354 7.755 4.32.186 4.992-7.544 4.992-9.928 0-2.512 0-12.138-10.088-15.172-8.566-2.577-13.724 2.394-16.09 8.58L45.331 57.104c-.56 1.236-.942 4.046 2.017 5.395 2.96 1.348 4.656-.488 5.38-2.36L60.8 36.538c1.12-3.71 4.506-11.127 9.08-11.127Z"></path>
  <path fill="#16824E" fill-rule="evenodd" d="m62.704 37.15-8.096 23.674-.014.037c-.452 1.168-1.285 2.548-2.697 3.386-1.532.908-3.398.974-5.378.072-2.074-.945-3.133-2.522-3.46-4.168-.296-1.483.02-2.887.417-3.799l11.416-30.97.004-.01c1.28-3.349 3.383-6.552 6.512-8.548 3.2-2.041 7.245-2.67 12.022-1.234 5.703 1.716 8.648 5.366 10.104 8.944 1.408 3.463 1.408 6.815 1.408 8.116v.028c0 1.303-.176 4.06-.972 6.539-.396 1.235-.996 2.564-1.94 3.599-.995 1.092-2.392 1.865-4.166 1.789-1.402-.06-2.675-.506-3.56-1.549-.834-.982-1.044-2.178-1.087-3.123-.043-.954.076-1.97.177-2.807l.017-.141c.102-.844.185-1.529.185-2.133 0-1.4-.263-3.465-.977-5.101-.714-1.64-1.61-2.34-2.74-2.34-1.197 0-2.664 1.041-4.174 3.288-1.418 2.11-2.47 4.697-2.99 6.417l-.011.035ZM45.33 57.105l11.433-31.018c2.366-6.186 7.524-11.157 16.09-8.58 10.088 3.034 10.088 12.66 10.088 15.172 0 2.384-.672 10.114-4.992 9.928-3.19-.137-2.87-2.78-2.548-5.423.097-.8.194-1.6.194-2.331 0-3.147-1.143-9.44-5.717-9.44-4.573 0-7.958 7.417-9.08 11.126l-8.07 23.6c-.725 1.873-2.421 3.71-5.38 2.36-2.96-1.348-2.579-4.157-2.018-5.394Z" clip-rule="evenodd"></path>
  <path fill="#19CB75" fill-rule="evenodd" d="M72.975 19.036a1 1 0 0 1 1.332-.477c4.82 2.275 6.958 6.397 7.677 10.51.713 4.08.052 8.228-.777 10.823a1 1 0 0 1-1.905-.608c.755-2.364 1.357-6.179.711-9.87-.64-3.661-2.481-7.122-6.56-9.047a1 1 0 0 1-.478-1.33Z" clip-rule="evenodd"></path>
  <path fill="#59F4AA" fill-rule="evenodd" d="M64.183 19.33a1 1 0 0 1-.859 1.124c-.079.01-.304.096-.673.419-.345.301-.721.726-1.1 1.224-.741.973-1.416 2.12-1.817 2.896l-12.48 33.569a1 1 0 0 1-1.874-.697l12.5-33.625c.014-.037.03-.073.047-.108a23.221 23.221 0 0 1 2.032-3.247c.423-.555.89-1.094 1.376-1.518.462-.404 1.054-.806 1.725-.895a1 1 0 0 1 1.123.859Z" clip-rule="evenodd"></path>
  <path fill="#19CB75" fill-rule="evenodd" d="M71.7 22.671c1.151.193 2.247.673 2.953 1.533a1 1 0 0 1-1.546 1.268c-.295-.359-.87-.683-1.738-.828-.851-.143-1.889-.093-2.962.198-2.144.582-4.3 2.085-5.35 4.683l-.002.004-2.937 7.187a1 1 0 1 1-1.851-.756l2.936-7.184v-.002c1.325-3.276 4.043-5.147 6.68-5.862 1.318-.357 2.648-.436 3.816-.241Z" clip-rule="evenodd"></path>
  <path fill="#CAFD3A" fill-rule="evenodd" d="M79.116 38.733a8.006 8.006 0 0 0-2.602.75 1 1 0 0 1-.894-1.79 9.999 9.999 0 0 1 3.298-.95c1.3-.13 2.865.032 4.064 1.097a1 1 0 1 1-1.33 1.495c-.6-.534-1.494-.706-2.536-.602zm-.002-5.828c-1.288.22-2.413.591-3.031.854a1 1 0 0 1-.781-1.841c.757-.322 2.031-.738 3.475-.984 1.434-.245 3.124-.339 4.666.061a1 1 0 1 1-.502 1.936c-1.157-.3-2.53-.247-3.827-.026zm2.309-10.263a1 1 0 0 1-.785 1.177c-1.11.222-2.296.99-3.374 1.972-1.06.967-1.914 2.046-2.363 2.724a1 1 0 1 1-1.668-1.104c.53-.801 1.49-2.01 2.684-3.098 1.178-1.073 2.69-2.128 4.33-2.455a1 1 0 0 1 1.176.784zm-7.381-5.519a1 1 0 0 1-.322 1.377c-.087.054-.3.283-.551.872-.233.545-.44 1.253-.614 2.043-.35 1.576-.544 3.344-.615 4.485a1 1 0 1 1-1.996-.124c.075-1.213.28-3.089.658-4.793.188-.85.426-1.692.728-2.398.283-.662.697-1.388 1.335-1.784a1 1 0 0 1 1.377.322zm-12.165.924a1 1 0 0 1 1.357-.4c.62.34 1.169.97 1.627 1.613.478.67.944 1.48 1.37 2.31a42.36 42.36 0 0 1 2.027 4.68 1 1 0 0 1-1.882.677 40.4 40.4 0 0 0-1.923-4.442c-.403-.785-.82-1.501-1.22-2.065-.423-.592-.753-.905-.957-1.017a1 1 0 0 1-.4-1.356zm-6.18 6.993a1 1 0 0 1 1.293-.572c.955.369 2.457 1.036 3.896 1.854 1.398.794 2.898 1.818 3.687 2.941a1 1 0 1 1-1.636 1.15c-.511-.727-1.657-1.567-3.039-2.352a29.157 29.157 0 0 0-3.629-1.728 1 1 0 0 1-.572-1.293zm-2.534 8.042a1 1 0 0 1 1.223-.71c.898.237 2.318.678 3.688 1.237 1.322.538 2.776 1.254 3.589 2.098a1 1 0 1 1-1.441 1.387c-.488-.506-1.575-1.092-2.902-1.633a30.568 30.568 0 0 0-3.447-1.156 1 1 0 0 1-.71-1.223zm-2.841 8.036a1 1 0 0 1 1.09-.9c1.383.131 4.797.739 7.554 2.17a1 1 0 1 1-.922 1.775c-2.444-1.269-5.58-1.836-6.822-1.954a1 1 0 0 1-.9-1.09zm-2.494 6.202a1 1 0 0 1 1.133-.847c1.474.214 5.082.949 7.671 2.217a1 1 0 1 1-.88 1.796c-2.31-1.132-5.677-1.83-7.078-2.033a1 1 0 0 1-.846-1.133zm-2.253 6.46a1 1 0 0 1 1.113-.872c.822.1 2.173.344 3.62.758 1.436.41 3.035 1.005 4.306 1.834a1 1 0 1 1-1.093 1.676c-1.029-.672-2.41-1.2-3.763-1.587a23.102 23.102 0 0 0-3.312-.696 1 1 0 0 1-.871-1.113z" clip-rule="evenodd"></path>
  <path fill="#F33624" d="M30.075 34.386c-5.28-.266-6.966 6.933-7.15 10.566-.183 3.633 1.64 8.85-3.169 8.815-4.997-.037-5.324-9-5.185-11.753.146-2.9.707-14.012 12.53-16.928C37.14 22.61 42.63 29.088 45.176 35.928L56.57 72.403c.575 1.46.851 4.726-2.644 6.11-3.495 1.385-5.346-.834-6.074-3.037L39.909 47.76c-1.078-4.347-4.554-13.107-9.834-13.374Z"></path>
  <path fill="#8B150A" fill-rule="evenodd" d="m37.977 48.276 7.963 27.79.013.037c.442 1.338 1.291 2.908 2.793 3.904 1.618 1.073 3.658 1.261 5.917.366 2.354-.933 3.6-2.611 4.05-4.397.41-1.624.136-3.201-.254-4.23L47.07 35.28l-.018-.05c-1.352-3.63-3.547-7.351-6.918-9.829-3.452-2.537-7.95-3.63-13.51-2.258-6.58 1.623-10.123 5.593-11.978 9.566-1.802 3.86-1.995 7.68-2.07 9.175l-.001.028c-.075 1.487-.031 4.644.73 7.51.38 1.429.981 2.949 1.97 4.15 1.038 1.261 2.524 2.18 4.467 2.194 1.566.012 2.966-.412 3.97-1.482.952-1.012 1.253-2.3 1.355-3.359.103-1.068.026-2.224-.042-3.199l-.012-.173c-.068-.97-.125-1.784-.09-2.501.084-1.643.514-4.058 1.458-5.956.945-1.9 2.11-2.788 3.594-2.713 1.552.078 3.26 1.496 4.88 4.19 1.534 2.551 2.608 5.63 3.114 7.667l.008.035ZM56.57 72.403 45.176 35.928c-2.546-6.84-8.036-13.318-18.075-10.842-11.823 2.916-12.383 14.029-12.53 16.928-.139 2.752.188 11.716 5.185 11.753 3.692.027 3.475-3.042 3.258-6.113-.066-.93-.131-1.859-.089-2.702.184-3.633 1.87-10.832 7.15-10.566 5.28.267 8.756 9.027 9.834 13.373l7.943 27.717c.728 2.203 2.58 4.422 6.074 3.038 3.495-1.385 3.219-4.65 2.644-6.11Z" clip-rule="evenodd"></path>
  <path fill="#FF867B" fill-rule="evenodd" d="M34.634 27.714c2.117 1.314 3.563 3.23 4.498 4.544a1 1 0 1 1-1.63 1.16c-.918-1.29-2.17-2.917-3.923-4.005-1.705-1.059-3.931-1.636-6.912-.742-4.512 1.354-6.516 5.649-6.934 7.624a1 1 0 0 1-1.957-.414c.5-2.357 2.829-7.48 8.316-9.125 3.562-1.069 6.378-.386 8.542.958Z" clip-rule="evenodd"></path>
  <path fill="#FFF5F4" fill-rule="evenodd" d="M29.267 27.67c-1.25-.018-2.391.177-3.03.351a1 1 0 1 1-.527-1.929c.81-.221 2.137-.442 3.587-.42 1.44.02 3.105.282 4.503 1.121a1 1 0 0 1-1.028 1.715c-.977-.585-2.244-.819-3.505-.837Z" clip-rule="evenodd"></path>
  <path fill="#BF2112" fill-rule="evenodd" d="M34.66 33.852c1.797 1.641 2.964 3.888 3.525 5.306a1 1 0 0 1-1.86.735c-.502-1.27-1.528-3.207-3.014-4.565-1.444-1.319-3.245-2.04-5.514-1.18-2.552.967-3.951 3.177-4.627 5.857-.679 2.688-.581 5.7-.24 7.932a1 1 0 1 1-1.976.303c-.367-2.394-.488-5.694.276-8.725.767-3.039 2.471-5.954 5.858-7.237 3.16-1.197 5.733-.105 7.572 1.574zm3.112-6.216a1 1 0 0 1 1.372-.343c.575.345 1.155.908 1.697 1.547.554.651 1.117 1.439 1.651 2.29 1.066 1.697 2.058 3.712 2.65 5.522l.003.008 5.374 16.872.001.003 6.562 20.372a1 1 0 1 1-1.904.613l-6.563-20.375v-.003L43.24 37.27c-.533-1.626-1.447-3.49-2.443-5.077a18.091 18.091 0 0 0-1.481-2.058c-.489-.576-.902-.947-1.202-1.127a1 1 0 0 1-.343-1.372z" clip-rule="evenodd"></path>
  <path fill="#FCE04E" fill-rule="evenodd" d="M24.014 46.14a1 1 0 0 1-.624 1.27c-4.346 1.484-7.828.657-9.172-.066a1 1 0 1 1 .948-1.761c.824.443 3.725 1.25 7.578-.066a1 1 0 0 1 1.27.623zm-9.302-10.422a1 1 0 0 1 1.413-.048c1.22 1.14 4.436 3.544 7.522 4.19a1 1 0 1 1-.41 1.957c-3.613-.755-7.155-3.45-8.477-4.686a1 1 0 0 1-.048-1.413zm5.828-8.696a1 1 0 0 1 1.28.602c.347.96 1.025 2.53 1.917 4.063.905 1.559 1.962 2.96 3.029 3.707a1 1 0 0 1-1.147 1.638c-1.434-1.003-2.668-2.716-3.612-4.34a28.738 28.738 0 0 1-2.068-4.39 1 1 0 0 1 .601-1.28zm9.427-3.1a1 1 0 0 1 .517 1.316c-.417.954-1.257 4.286-.674 9.041a1 1 0 0 1-1.985.243c-.618-5.044.242-8.746.826-10.084a1 1 0 0 1 1.316-.516zm10.15 3.195a1 1 0 0 1-.829 1.146c-.444.071-.97.343-1.56.853-.581.503-1.16 1.182-1.708 1.954-1.095 1.544-1.986 3.344-2.464 4.52a1 1 0 0 1-1.852-.754c.521-1.282 1.48-3.226 2.685-4.923.603-.85 1.286-1.666 2.03-2.31.736-.636 1.597-1.161 2.552-1.315a1 1 0 0 1 1.146.829zm.582 11.107c-1.386.871-2.529 1.919-3.139 2.596a1 1 0 1 1-1.486-1.339c.723-.802 2.006-1.973 3.561-2.95 1.542-.97 3.462-1.818 5.432-1.818a1 1 0 1 1 0 2c-1.43 0-2.968.631-4.368 1.51zm2.623 7.226c-1.61.107-3.191.475-4.138.778a1 1 0 1 1-.609-1.905 20.585 20.585 0 0 1 4.615-.869c1.752-.116 3.78.023 5.24.987a1 1 0 1 1-1.1 1.67c-.89-.587-2.352-.771-4.008-.661zm2.407 8.782a25.26 25.26 0 0 0-4.32-.023 1 1 0 1 1-.183-1.992c1.076-.099 2.838-.146 4.686.024 1.825.168 3.857.558 5.39 1.41a1 1 0 1 1-.97 1.749c-1.166-.648-2.864-1.008-4.603-1.168zm2.91 9.23c-1.84-.206-3.635-.133-4.703-.006a1 1 0 1 1-.237-1.986c1.202-.143 3.152-.22 5.162.004 1.981.221 4.18.752 5.748 1.943A1 1 0 1 1 53.4 65.01c-1.132-.86-2.891-1.34-4.761-1.548zm3.504 9.78c-1.863-.594-3.975-.724-5.338-.655a1 1 0 0 1-.1-1.998c1.532-.077 3.895.062 6.046.748 2.117.675 4.31 1.98 4.97 4.429a1 1 0 0 1-1.932.52c-.39-1.452-1.75-2.439-3.646-3.044z" clip-rule="evenodd"></path>
</svg>
