<svg xmlns="http://www.w3.org/2000/svg" width="32" height="32" id="christmas">
  <path fill="#004463" stroke="#004463" stroke-linecap="round" stroke-linejoin="round" d="M15.409 4.253h0a11 11 0 0 0-1.385.113 11 11 0 0 0-.021 0A11 11 0 0 0 5.22 11.36a11 11 0 0 0 3.011 12.14h3.637-3.637l-1.656 3.25a.5.5 0 0 0 0 .5.5.5 0 0 0 .434.25h17a.5.5 0 0 0 .433-.25.5.5 0 0 0 0-.5l-1.66-3.246a11 11 0 0 0 .57-.56 11 11 0 0 0 .237-.235 11 11 0 0 0 .486-.58 11 11 0 0 0 .217-.261 11 11 0 0 0 .455-.667 11 11 0 0 0 .158-.24 11 11 0 0 0 .352-.64 11 11 0 0 0 .18-.336 11 11 0 0 0 .261-.625 11 11 0 0 0 .16-.393 11 11 0 0 0 .186-.598 11 11 0 0 0 .136-.458 11 11 0 0 0 .125-.625 11 11 0 0 0 .086-.45 11 11 0 0 0 .069-.693 11 11 0 0 0 .035-.395 11 11 0 0 0-.002-.746 11 11 0 0 0-.004-.35 11 11 0 0 0-.066-.658 11 11 0 0 0-.051-.453 11 11 0 0 0-.115-.56 11 11 0 0 0-.11-.516 11 11 0 0 0-.162-.52 11 11 0 0 0-.185-.577 11 11 0 0 0-.006-.014 11 11 0 0 0-.213-.487 11 11 0 0 0-.25-.558 11 11 0 0 0-.225-.405 11 11 0 0 0-.318-.552 11 11 0 0 0-.287-.41 11 11 0 0 0-.344-.483 11 11 0 0 0-.332-.385 11 11 0 0 0-.393-.449 11 11 0 0 0-.32-.303 11 11 0 0 0-.486-.455 11 11 0 0 0-.334-.258 11 11 0 0 0-.534-.406 11 11 0 0 0-.365-.228 11 11 0 0 0-.58-.356 11 11 0 0 0-.285-.142 11 11 0 0 0-.711-.344 11 11 0 0 0-.254-.096 11 11 0 0 0-.771-.281 11 11 0 0 0-.3-.08 11 11 0 0 0-.765-.196 11 11 0 0 0-.287-.047 11 11 0 0 0-.81-.123 11 11 0 0 0-.19-.012 11 11 0 0 0-.928-.049 11 11 0 0 0-.103 0z"></path>
  <path fill="#eef2fa" d="M8.226 23.498a11 11 0 0 1-3.01-12.141A11 11 0 0 1 15.509 4.25a11 11 0 0 1 10.287 7.116 11 11 0 0 1-3.021 12.138"></path>
  <path fill="#d3e4f1" d="M15.404 4.25a11 11 0 0 0-1.406.114 11 11 0 0 1 8.797 7.002 11 11 0 0 1-3.018 12.135h2.998a11 11 0 0 0 3.02-12.137 11 11 0 0 0-10.287-7.117 11 11 0 0 0-.104 0z"></path>
  <path fill="#004463" d="M8.888 22.923A10 10 0 0 1 6.15 11.886a10 10 0 0 1 9.357-6.46 10 10 0 0 1 9.352 6.469 10 10 0 0 1-2.746 11.034"></path>
  <path fill="#6fb7e6" d="M8.227 23.5 6.57 26.75a.5.5 0 0 0 0 .5.5.5 0 0 0 .434.25h17a.5.5 0 0 0 .434-.25.5.5 0 0 0 0-.5l-1.663-3.25H8.227z"></path>
  <path fill="#eef2fa" d="m8.126 14.704-.206-.794-.794-.206.794-.207.206-.793.207.793.793.207-.793.206zm10.078-5.177-.155-.595-.595-.155.595-.155.155-.595.155.595.595.155-.595.155zm2.913 7.866-.104-.396-.396-.104.396-.103.104-.397.103.397.397.103-.397.104zm-11.06.2-.104-.397-.396-.104.396-.103.104-.397.103.397.397.103-.397.104z"></path>
  <path fill="#c7c6ce" d="m18.694 13.924-.104-.397-.396-.103.396-.103.104-.397.103.397.397.103-.397.103z"></path>
  <path fill="#eef2fa" d="m11.913 8.444-.103-.397-.397-.103.397-.103.103-.397.103.397.397.103-.397.103zm1.944 13.435-.103-.397-.397-.103.397-.103.103-.397.103.397.397.103-.397.103zm-1.73-8.575-.156-.595-.595-.155.595-.155.155-.595.155.595.595.155-.595.155zm7.299 8.206-.155-.595-.595-.155.595-.154.155-.596.155.596.595.154-.595.155z"></path>
  <path fill="#3a90cd" d="m19.776 23.5 1.662 3.25a.5.5 0 0 1-.434.75h3a.5.5 0 0 0 .434-.75l-1.663-3.25z"></path>
  <path fill="#003a54" d="M18.055 5.769a11 11 0 0 1 4.74 5.598 11 11 0 0 1-2.434 11.562h1.752a10 10 0 0 0 2.746-11.035 10 10 0 0 0-6.804-6.125z"></path>
  <path fill="#d3e4f1" d="m24.18 16.377-.207-.793-.793-.207.793-.206.207-.794.206.794.794.206-.794.207z"></path>
  <g transform="translate(276.732 -667.88)scale(.48286)">
    <path fill="#b48966" d="M-543 1420.636h4v10h-4z"></path>
    <path fill="#91ca60" d="M-541 1408.236a.9.9 0 0 0-.78.45l-8.1 12.6a.9.9 0 0 0 0 .9.9.9 0 0 0 .78.45h16.2a.9.9 0 0 0 .779-.45.9.9 0 0 0 0-.9l-8.1-12.6a.9.9 0 0 0-.78-.45z"></path>
    <path fill="#8a6845" d="M-543 1422.089v1.472h2c.554 0 1 .446 1 1v6.075h1v-8.547h-4z"></path>
    <path fill="#70bb57" d="M-541 1408.235a.9.9 0 0 0-.672.305l7.55 11.746a.9.9 0 0 1 0 .9.9.9 0 0 1-.778.45H-549.992a.9.9 0 0 0 .113.55.9.9 0 0 0 .78.45H-532.9a.9.9 0 0 0 .779-.45.9.9 0 0 0 0-.9l-8.1-12.6a.9.9 0 0 0-.779-.45Z"></path>
    <path fill="#91ca60" d="M-541.034 1404.437a.7.7 0 0 0-.572.35l-6.3 9.798a.7.7 0 0 0 0 .701.7.7 0 0 0 .605.35H-534.7a.7.7 0 0 0 .606-.35.7.7 0 0 0 0-.7l-6.3-9.8a.7.7 0 0 0-.606-.35.7.7 0 0 0-.034 0z"></path>
    <path fill="#70bb57" d="M-541.033 1404.436a.7.7 0 0 0-.572.35l-.15.232 5.46 8.492a.7.7 0 0 1 0 .702.7.7 0 0 1-.605.35h-10.991l-.015.023a.7.7 0 0 0 0 .7.7.7 0 0 0 .605.35H-534.7a.7.7 0 0 0 .606-.35.7.7 0 0 0 0-.7l-6.3-9.8a.7.7 0 0 0-.606-.349.7.7 0 0 0-.033 0z"></path>
    <circle cx="-544" cy="1411.136" r=".5" fill="#ed4a4b"></circle>
    <circle cx="-537.5" cy="1413.862" r=".5" fill="#ff9a00"></circle>
    <circle cx="-540.5" cy="1412.362" r=".5" fill="#3a90cd"></circle>
    <circle cx="-545.5" cy="1414.136" r=".5" fill="#70bb57"></circle>
    <circle cx="-537.5" cy="1418.136" r=".5" fill="#3a90cd"></circle>
    <circle cx="-545.5" cy="1418.136" r=".5" fill="#ed4a4b"></circle>
    <circle cx="-540.5" cy="1420.136" r=".5" fill="#70bb57"></circle>
    <circle cx="-535.5" cy="1420.862" r=".5" fill="#ff9a00"></circle>
    <circle cx="-547.5" cy="1421.136" r=".5" fill="#3a90cd"></circle>
    <path fill="#91ca60" d="M-541.024 1400.636a.5.5 0 0 0-.41.25l-4.5 7a.5.5 0 0 0 0 .5.5.5 0 0 0 .434.25h9a.5.5 0 0 0 .433-.25.5.5 0 0 0 0-.5l-4.5-7a.5.5 0 0 0-.433-.25.5.5 0 0 0-.024 0z"></path>
    <path fill="#70bb57" d="M-541.023 1400.635a.5.5 0 0 0-.405.243l3.862 6.007a.5.5 0 0 1 0 .5.5.5 0 0 1-.434.25h-7.773l-.16.25a.5.5 0 0 0 0 .5.5.5 0 0 0 .433.25h9a.5.5 0 0 0 .434-.25.5.5 0 0 0 0-.5l-4.5-7a.5.5 0 0 0-.434-.25.5.5 0 0 0-.023 0z"></path>
    <path fill="#ed4a4b" d="M-539.805 1401.259c-.056.038-.929-.544-.997-.544-.065 0-.898.582-.95.542-.054-.042.23-1.052.209-1.116-.02-.063-.831-.675-.81-.737.024-.064 1.072-.106 1.127-.146.053-.039.385-.999.45-.997.069.002.432.986.487 1.026.053.039 1.07.057 1.088.12.019.066-.804.715-.825.78-.02.063.275 1.035.221 1.072z"></path>
    <circle cx="-542.5" cy="1404.136" r=".5" fill="#ed4a4b"></circle>
    <circle cx="-538.5" cy="1407.136" r=".5" fill="#ff9a00"></circle>
    <path fill="#d7343e" d="M-541 1398.635c-.035 0-.139.258-.242.518.102.243.204.488.23.508.053.038 1.07.058 1.088.12.02.066-.805.715-.826.78-.015.045.104.483.168.781.258.157.521.313.553.291.054-.036-.241-1.01-.221-1.072.021-.065.843-.714.824-.78-.018-.062-1.033-.081-1.086-.12-.055-.04-.42-1.023-.488-1.026zm-.525 2.456c-.028 0-.218.122-.399.236-.023.12-.068.293-.053.305.04.03.442-.234.707-.397-.094-.055-.238-.144-.255-.144z"></path>
  </g>
</svg>
