<svg xmlns="http://www.w3.org/2000/svg" width="96" height="96" fill="none" id="cookie">
  <path fill="#DFA158" d="M61.2 37.436c1.323-2.42 2.082-5.248 2.082-8.27 0-8.945-6.66-16.197-14.875-16.197-8.216 0-14.876 7.252-14.876 16.198 0 3.076.787 5.951 2.154 8.4-7.07-.746-14.841.034-16.369 6.145-2.254 9.016 7.713 12.088 18.242 11.21C35.42 61 31.978 67.572 27.25 69.498c-8.925 3.636-5.95 16.198 4.959 14.214 8.727-1.586 14.214-9.035 15.867-12.561 2.314 4.628 9.322 13.62 18.843 12.561 9.52-1.057 10.578-7.933 9.917-11.24-.44-1.762-2.777-5.222-8.595-4.958-4.884.222-8.277-6.115-10.28-12.405 10.93.416 21.275-3.274 18.567-12.528-1.647-5.629-8.645-6.153-15.327-5.144Z"></path>
  <path fill="#9E6017" fill-rule="evenodd" d="M76.836 72.472c.661 3.306-.397 10.182-9.917 11.24-8.243.915-14.603-5.702-17.663-10.499a23.046 23.046 0 0 1-1.18-2.063 18.354 18.354 0 0 1-1.157 2.066c-2.434 3.8-7.452 9.176-14.71 10.495-10.91 1.984-13.885-10.578-4.959-14.214 4.196-1.71 7.38-7.079 9.537-12.513.274-.689.53-1.378.771-2.062-.727.061-1.452.103-2.17.125-9.678.3-18.17-2.942-16.072-11.335 1.36-5.44 7.67-6.656 14.028-6.33.783.04 1.566.104 2.341.186a16.735 16.735 0 0 1-.987-2.1 17.394 17.394 0 0 1-1.167-6.301c0-8.946 6.66-16.198 14.876-16.198 8.215 0 14.876 7.252 14.876 16.198 0 2.164-.39 4.23-1.098 6.117-.28.747-.61 1.466-.984 2.152.79-.12 1.586-.217 2.377-.288 5.887-.525 11.498.47 12.95 5.432 2.532 8.654-6.351 12.442-16.453 12.557-.7.008-1.405-.002-2.113-.029.215.676.446 1.353.694 2.022 2.055 5.554 5.226 10.581 9.585 10.383 5.818-.264 8.154 3.196 8.595 4.959ZM60.793 57.123c.81 2.068 1.762 3.968 2.844 5.45 1.552 2.128 3.064 3.008 4.513 2.942 6.824-.31 9.968 3.84 10.626 6.472l.012.046.01.047c.406 2.035.291 5.112-1.392 7.89-1.744 2.88-4.992 5.143-10.266 5.73-5.483.608-10.141-1.696-13.626-4.601-2.24-1.868-4.072-4.043-5.428-6.028a28.589 28.589 0 0 1-3.923 4.546c-2.867 2.687-6.756 5.182-11.597 6.062-6.342 1.153-10.878-1.963-12.192-6.4-1.288-4.347.721-9.434 6.121-11.635 1.815-.739 3.578-2.47 5.203-4.968 1.094-1.683 2.062-3.616 2.897-5.612-4.377.045-8.623-.616-11.855-2.252-2.029-1.028-3.764-2.496-4.789-4.517-1.037-2.045-1.233-4.435-.575-7.068.995-3.982 4.059-6.095 7.495-7.081 2.36-.677 5.026-.872 7.658-.798a19.46 19.46 0 0 1-.998-6.181c0-9.887 7.398-18.198 16.876-18.198 9.477 0 16.876 8.31 16.876 18.198 0 2.067-.32 4.057-.912 5.916 2.373-.147 4.749-.042 6.874.497 3.243.824 6.121 2.742 7.203 6.438.789 2.697.67 5.17-.327 7.322-.983 2.124-2.721 3.717-4.783 4.874-3.371 1.891-7.889 2.781-12.545 2.91Z" clip-rule="evenodd"></path>
  <path fill="#CE8F44" fill-rule="evenodd" d="M60.282 26.167c0 3.02-.759 5.849-2.081 8.27a35.556 35.556 0 0 1 4.4-.406 17.52 17.52 0 0 0 .681-4.864c0-5.521-2.536-10.397-6.41-13.322 2.13 2.803 3.41 6.4 3.41 10.322Zm12.782 12.22c.184.37.34.766.464 1.193 2.708 9.254-7.637 12.944-18.566 12.528 1.508 4.737 3.805 9.501 6.933 11.47-1.65-2.324-2.957-5.403-3.933-8.47 10.93.416 21.274-3.274 18.566-12.528-.578-1.975-1.814-3.32-3.464-4.193Zm.423 30.159c.166.336.28.651.349.926.661 3.306-.397 10.182-9.917 11.24-4.83.536-9.013-1.514-12.265-4.268 3.464 4.048 8.782 7.988 15.265 7.267 9.52-1.057 10.578-7.933 9.917-11.24-.272-1.086-1.264-2.819-3.35-3.925ZM47.58 72.112c-1.094-1.44-1.94-2.832-2.505-3.962-1.653 3.526-7.14 10.975-15.867 12.561-2.611.475-4.767.117-6.415-.753 1.412 2.719 4.66 4.618 9.415 3.753 7.996-1.454 13.272-7.829 15.371-11.599ZM33.346 55.057a53.937 53.937 0 0 0 1.211-3.135c-5.683.474-11.202-.203-14.724-2.344 2.005 3.662 7.368 5.342 13.513 5.479Z" clip-rule="evenodd"></path>
  <path fill="#9E6017" d="M38.495 67.969a1 1 0 1 1-2 0 1 1 0 0 1 2 0zm-9.971 12.12a1 1 0 1 1-2 0 1 1 0 0 1 2 0zm16.312-6.901a1 1 0 1 1-2 0 1 1 0 0 1 2 0zm-2-17.805a1 1 0 1 1-2 0 1 1 0 0 1 2 0zm-15.9-6.123a1 1 0 1 1-2 0 1 1 0 0 1 2 0zm8.78-7.791a1 1 0 1 1-2 0 1 1 0 0 1 2 0zm5.12 6.117a1 1 0 1 1-2 0 1 1 0 0 1 2 0zm2.638-8.84a1 1 0 1 1-2-.001 1 1 0 0 1 2 0zM59.76 43.5a1 1 0 1 1-2 0 1 1 0 0 1 2 0zm0-9.532a1 1 0 1 1-2 0 1 1 0 0 1 2 0zM48.414 28.78a1 1 0 1 1-2 0 1 1 0 0 1 2 0zm3.977-11.312a1 1 0 1 1-2 0 1 1 0 0 1 2 0zM41.836 19.78a1 1 0 1 1-2 0 1 1 0 0 1 2 0zm29.612 25.805a1 1 0 1 1-2 0 1 1 0 0 1 2 0zM57.995 51.26a1 1 0 1 1-2 0 1 1 0 0 1 2 0zM56.35 63.559a1 1 0 1 1-2 0 1 1 0 0 1 2 0zm-2.418 8.144a1 1 0 1 1-2 0 1 1 0 0 1 2 0zm6.238 3.419a1 1 0 1 1-2 0 1 1 0 0 1 2 0zm8.03 4.625a1 1 0 1 1-2 0 1 1 0 0 1 2 0z"></path>
  <path fill="#F9B76B" fill-rule="evenodd" d="M39.916 19.285a1.5 1.5 0 0 1 .263 2.105c-.95 1.22-2.935 5.22-2.2 10.367a1.5 1.5 0 1 1-2.97.424c-.864-6.053 1.418-10.854 2.802-12.633a1.5 1.5 0 0 1 2.105-.263zm-9.466 19.82a1.5 1.5 0 0 1-1.091 1.819c-4.07 1.017-5.628 4.38-5.888 5.813a1.5 1.5 0 0 1-2.952-.537c.406-2.232 2.582-6.804 8.112-8.187a1.5 1.5 0 0 1 1.819 1.092zm8.52 17.94a1.5 1.5 0 0 1 .948 1.898c-.533 1.598-1.603 4.125-3.114 6.627-1.498 2.478-3.518 5.082-6.004 6.664-1.304.83-2.06 1.459-2.594 2.073-.526.604-.897 1.266-1.339 2.267a1.5 1.5 0 1 1-2.745-1.21c.496-1.124 1.01-2.095 1.82-3.025.8-.92 1.823-1.73 3.247-2.636 1.914-1.218 3.644-3.363 5.047-5.685 1.389-2.298 2.368-4.621 2.836-6.024a1.5 1.5 0 0 1 1.897-.948z" clip-rule="evenodd"></path>
  <path fill="#763B04" fill-rule="evenodd" d="M40.818 31.057a1 1 0 0 1 1.41.098c.982 1.13 2.853 2.504 5.198 2.902 2.287.387 5.149-.132 8.247-2.982a1 1 0 1 1 1.354 1.472c-3.514 3.233-6.988 3.981-9.935 3.482-2.89-.49-5.15-2.156-6.373-3.562a1 1 0 0 1 .099-1.41Z" clip-rule="evenodd"></path>
  <path fill="#763B04" d="M46.763 23.547a1.983 1.983 0 1 1-3.967 0 1.983 1.983 0 0 1 3.967 0Z"></path>
  <path fill="#fff" fill-rule="evenodd" d="M48.763 23.547a3.983 3.983 0 1 1-7.967 0 3.983 3.983 0 0 1 7.967 0ZM44.78 25.53a1.983 1.983 0 1 0 0-3.967 1.983 1.983 0 0 0 0 3.967Z" clip-rule="evenodd"></path>
  <path fill="#763B04" d="M55.358 23.547a1.983 1.983 0 1 1-3.967 0 1.983 1.983 0 0 1 3.967 0Z"></path>
  <path fill="#fff" fill-rule="evenodd" d="M57.358 23.547a3.983 3.983 0 1 1-7.967 0 3.983 3.983 0 0 1 7.967 0Zm-3.983 1.983a1.983 1.983 0 1 0 0-3.967 1.983 1.983 0 0 0 0 3.967Z" clip-rule="evenodd"></path>
  <path fill="#FF4D26" d="M51.19 43.809a3.085 3.085 0 1 1-2.685 5.554 3.085 3.085 0 0 1 2.685-5.554Z"></path>
  <path fill="#CC8736" fill-rule="evenodd" d="M52.06 42.008a5.085 5.085 0 1 1-4.425 9.156 5.085 5.085 0 0 1 4.425-9.156Zm.565 5.92a3.085 3.085 0 1 0-5.555-2.684 3.085 3.085 0 0 0 5.555 2.685Z" clip-rule="evenodd"></path>
  <path fill="#D43816" fill-rule="evenodd" d="M52.625 47.928a3.085 3.085 0 0 0-2.449-4.41 2.532 2.532 0 0 1 1.742 3.574 2.53 2.53 0 1 1-4.233-2.706 3.085 3.085 0 1 0 4.94 3.543Z" clip-rule="evenodd"></path>
  <path fill="#FF4D26" d="M49.146 58.618a2.644 2.644 0 1 1-.8 5.228 2.644 2.644 0 0 1 .8-5.228Z"></path>
  <path fill="#CC8635" fill-rule="evenodd" d="M49.449 56.641a4.645 4.645 0 1 1-1.405 9.183 4.645 4.645 0 0 1 1.405-9.183Zm1.912 4.991a2.645 2.645 0 1 0-5.229-.8 2.645 2.645 0 0 0 5.229.8Z" clip-rule="evenodd"></path>
  <path fill="#D43816" fill-rule="evenodd" d="M51.36 61.632a2.644 2.644 0 0 0-3.119-2.996 2.169 2.169 0 1 1-1.822 1.338 2.644 2.644 0 1 0 4.941 1.658Z" clip-rule="evenodd"></path>
  <path fill="#FF9E74" d="M49.19 44.554a.797.797 0 1 1-.694 1.435.797.797 0 0 1 .694-1.435zm-1.502 14.904a.797.797 0 1 1-.24 1.576.797.797 0 0 1 .24-1.576z"></path>
  <path fill="#C67C27" d="M58.995 64.969a1 1 0 1 1-2 0 1 1 0 0 1 2 0zM71.713 49.67a1 1 0 1 1-2 0 1 1 0 0 1 2 0zm-9.718 17.298a1 1 0 1 1-2 0 1 1 0 0 1 2 0zm-2 2.734a.734.734 0 1 1-1.469 0 .734.734 0 0 1 1.469 0zm4 0a.734.734 0 1 1-1.469 0 .734.734 0 0 1 1.469 0zm2.906 2.219a.734.734 0 1 1-1.469 0 .734.734 0 0 1 1.469 0zm4.281-2.219a.734.734 0 1 1-1.468 0 .734.734 0 0 1 1.468 0zm3.344 3.199a.734.734 0 1 1-1.469 0 .734.734 0 0 1 1.469 0zm-4.32-.656a.41.41 0 1 1-.82 0 .41.41 0 0 1 .82 0zM60.58 63.56a.41.41 0 1 1-.82 0 .41.41 0 0 1 .82 0zm-2.586-2.844a.41.41 0 1 1-.82 0 .41.41 0 0 1 .82 0zm10.026-8.563a.41.41 0 1 1-.82 0 .41.41 0 0 1 .82 0zm6.469-3.481a.41.41 0 1 1-.82 0 .41.41 0 0 1 .82 0zm1-3.25a.41.41 0 1 1-.82 0 .41.41 0 0 1 .82 0zm-2.469 2.43a.41.41 0 1 1-.82 0 .41.41 0 0 1 .82 0zm-4.18 1.82a.41.41 0 1 1-.82 0 .41.41 0 0 1 .82 0zm-5.78 3.302a.41.41 0 1 1-.821 0 .41.41 0 0 1 .82 0z"></path>
  <path fill="#13DE64" fill-rule="evenodd" d="M25.074 38.964c-.207-.17-.596-.251-1.038-.207a1 1 0 1 1-.199-1.99c.66-.066 1.7-.013 2.51.654.895.738 1.197 1.95.884 3.512-.17.856-.205 1.248-.162 1.484.02.112.054.234.398.463.53.354 1.272.92 1.656 1.83.408.967.33 2.106-.325 3.416-.439.878-.426 1.292-.374 1.518.058.253.184.438.447.826l.195.29c.35.526.846 1.38.997 2.282.079.464.077 1.005-.144 1.533-.23.547-.654.98-1.237 1.271a1 1 0 0 1-.895-1.789c.21-.105.265-.202.288-.255.03-.074.054-.206.016-.428-.08-.471-.378-1.038-.689-1.504l-.128-.187c-.27-.39-.648-.935-.8-1.59-.195-.848-.018-1.756.535-2.861.471-.941.393-1.456.272-1.744-.146-.345-.463-.637-.924-.944-.647-.431-1.11-.97-1.255-1.769-.122-.672.009-1.437.168-2.234.23-1.145-.074-1.476-.196-1.577Z" clip-rule="evenodd"></path>
  <path fill="#FFF7CD" fill-rule="evenodd" d="M27.074 38.964c-.207-.17-.596-.252-1.038-.207a1 1 0 0 1-.199-1.99c.66-.066 1.7-.013 2.51.654.895.738 1.197 1.949.884 3.512-.17.856-.205 1.248-.162 1.484.02.112.053.233.398.463.53.354 1.272.92 1.656 1.83.408.967.33 2.105-.325 3.416-.439.878-.426 1.292-.374 1.518.058.253.184.438.447.826l.195.29c.35.526.846 1.38.997 2.281.079.465.077 1.006-.144 1.534-.23.547-.654.98-1.238 1.27a1 1 0 1 1-.894-1.788c.21-.105.265-.202.288-.256.03-.073.054-.205.016-.427-.08-.471-.378-1.038-.689-1.504-.038-.058-.081-.12-.128-.187-.27-.39-.648-.935-.8-1.59-.195-.848-.018-1.756.535-2.861.47-.941.393-1.456.272-1.744-.146-.345-.463-.637-.924-.944-.647-.432-1.11-.97-1.255-1.769-.122-.672.009-1.437.168-2.234.23-1.145-.074-1.476-.196-1.577Z" clip-rule="evenodd"></path>
  <path fill="#1BC1E6" fill-rule="evenodd" d="M27.251 71.355c-.137.003-.344.108-.544.348a1 1 0 0 1-1.537-1.28c.368-.442 1.066-1.043 2.031-1.067 1.033-.026 1.96.609 2.735 1.772.429.643.65.91.817 1.036.073.055.142.102.436.064.543-.07 1.35-.12 2.153.26.84.396 1.498 1.17 1.931 2.383.285.796.544 1.05.71 1.164.181.124.356.17.744.272l.295.078c.532.144 1.352.42 1.999.915.331.254.667.603.868 1.072.21.49.24 1.036.067 1.599a1 1 0 0 1-1.912-.587c.04-.132.021-.19.007-.224-.024-.056-.09-.152-.247-.272-.33-.254-.844-.448-1.303-.572l-.186-.048c-.396-.1-.964-.242-1.461-.582-.639-.436-1.099-1.119-1.464-2.142-.304-.853-.663-1.135-.902-1.248-.274-.13-.607-.141-1.042-.085-.685.09-1.31-.01-1.89-.446-.488-.364-.885-.929-1.284-1.527-.579-.87-.951-.885-1.02-.883Z" clip-rule="evenodd"></path>
  <path fill="#FFF7CD" fill-rule="evenodd" d="M28.252 70.355c-.137.003-.345.108-.544.348a1 1 0 0 1-1.538-1.28c.368-.442 1.066-1.043 2.031-1.067 1.033-.026 1.96.609 2.736 1.772.428.643.648.91.816 1.036.074.055.142.102.436.064.544-.07 1.35-.12 2.153.26.84.396 1.498 1.17 1.931 2.383.285.796.544 1.05.71 1.164.181.124.356.17.744.272l.295.078c.532.144 1.352.42 1.999.915.331.254.667.603.868 1.072.21.49.24 1.036.067 1.599a1 1 0 0 1-1.912-.587c.04-.132.021-.19.007-.224-.024-.056-.089-.152-.247-.272-.33-.254-.844-.448-1.303-.572l-.186-.048c-.396-.1-.964-.242-1.46-.582-.64-.436-1.1-1.119-1.465-2.142-.304-.853-.663-1.135-.902-1.248-.274-.13-.607-.141-1.042-.085-.684.09-1.31-.01-1.89-.446-.488-.364-.884-.929-1.284-1.527-.579-.87-.951-.885-1.02-.883Z" clip-rule="evenodd"></path>
  <path fill="#1BC1E5" fill-rule="evenodd" d="M58.731 79.794c-.007.137.082.352.305.57a1 1 0 0 1-1.394 1.433c-.413-.4-.958-1.143-.908-2.107.054-1.032.76-1.907 1.979-2.59.673-.378.957-.577 1.095-.735.06-.069.114-.133.098-.429-.028-.548-.016-1.355.425-2.127.46-.806 1.284-1.403 2.526-1.741.816-.222 1.09-.46 1.216-.617.138-.172.197-.342.328-.72l.101-.29c.184-.519.522-1.315 1.067-1.921.278-.311.653-.619 1.135-.783a2.286 2.286 0 0 1 1.6.056 1 1 0 0 1-.734 1.861c-.128-.05-.187-.035-.222-.023-.058.02-.158.076-.29.224-.28.31-.512.807-.671 1.256-.02.054-.04.115-.062.181-.13.387-.316.942-.693 1.412-.485.603-1.201 1.008-2.25 1.294-.873.237-1.183.573-1.314.803-.15.263-.187.593-.164 1.032.035.69-.113 1.304-.592 1.85-.4.458-.994.81-1.622 1.161-.91.51-.955.88-.959.95Z" clip-rule="evenodd"></path>
  <path fill="#FFF7CD" fill-rule="evenodd" d="M57.731 78.794c-.007.137.082.352.305.57a1 1 0 1 1-1.394 1.433c-.413-.4-.958-1.143-.908-2.107.054-1.032.76-1.907 1.979-2.59.673-.378.957-.577 1.095-.735.06-.069.114-.133.098-.429-.028-.548-.016-1.355.425-2.127.46-.806 1.284-1.403 2.526-1.741.816-.222 1.09-.46 1.216-.617.138-.172.197-.342.328-.72l.1-.29c.185-.519.523-1.315 1.068-1.921.278-.311.652-.619 1.135-.783a2.286 2.286 0 0 1 1.6.056 1 1 0 0 1-.734 1.861c-.128-.05-.187-.035-.222-.023-.058.02-.158.076-.29.224-.28.31-.512.807-.671 1.256-.02.054-.04.115-.062.181-.13.387-.316.942-.693 1.412-.485.603-1.201 1.008-2.25 1.294-.873.237-1.183.573-1.314.803-.15.263-.187.593-.164 1.032.035.69-.113 1.304-.592 1.85-.4.458-.994.81-1.622 1.161-.91.51-.955.88-.959.95Z" clip-rule="evenodd"></path>
  <path fill="#13DE64" fill-rule="evenodd" d="M70.65 38.964c.207-.17.596-.251 1.038-.207a1 1 0 1 0 .199-1.99c-.66-.066-1.7-.013-2.509.654-.895.738-1.198 1.95-.885 3.512.171.856.205 1.248.162 1.484-.02.112-.053.234-.397.463-.531.354-1.273.92-1.657 1.83-.408.967-.33 2.106.325 3.416.44.878.427 1.292.375 1.518-.058.253-.184.438-.447.826l-.196.29c-.35.526-.845 1.38-.997 2.282-.078.464-.077 1.005.144 1.533.23.547.654.98 1.238 1.271a1 1 0 1 0 .894-1.789c-.21-.105-.265-.202-.287-.255-.03-.074-.054-.206-.017-.428.08-.471.378-1.038.69-1.504.037-.057.08-.12.127-.187.27-.39.649-.935.8-1.59.195-.848.018-1.756-.535-2.861-.47-.941-.393-1.456-.271-1.744.145-.345.462-.637.923-.944.647-.431 1.11-.97 1.256-1.769.122-.672-.01-1.437-.169-2.234-.229-1.145.075-1.476.196-1.577Z" clip-rule="evenodd"></path>
  <path fill="#FFF7CD" fill-rule="evenodd" d="M68.65 38.964c.208-.17.596-.252 1.038-.207a1 1 0 0 0 .199-1.99c-.66-.066-1.7-.013-2.509.654-.895.738-1.198 1.949-.885 3.512.171.856.205 1.248.162 1.484-.02.112-.053.233-.397.463-.531.354-1.273.92-1.657 1.83-.408.967-.33 2.105.325 3.416.44.878.427 1.292.375 1.518-.058.253-.184.438-.447.826l-.196.29c-.35.526-.845 1.38-.997 2.281-.078.465-.077 1.006.144 1.534.23.547.654.98 1.238 1.27a1 1 0 1 0 .894-1.788c-.21-.105-.265-.202-.287-.256-.03-.073-.054-.205-.017-.427.08-.471.378-1.038.69-1.504.037-.058.08-.12.127-.187.27-.39.649-.935.8-1.59.195-.848.018-1.756-.535-2.861-.47-.941-.393-1.456-.271-1.744.145-.345.462-.637.923-.944.648-.432 1.11-.97 1.256-1.769.122-.672-.01-1.437-.169-2.234-.229-1.145.075-1.476.196-1.577Z" clip-rule="evenodd"></path>
</svg>
