<svg xmlns="http://www.w3.org/2000/svg" width="96" height="96" fill="none" id="rudolph">
  <path fill="#DA844B" fill-rule="evenodd" d="M32.755 10.605a2 2 0 0 1-.894 2.684c-2.634 1.316-8.787 7.45-6.03 21.236.587 2.933 2.733 5.8 5.38 8.234 2.615 2.405 5.466 4.158 7.011 4.904a2 2 0 0 1-1.739 3.603c-1.884-.91-5.065-2.882-7.98-5.563-2.881-2.65-5.761-6.23-6.594-10.393-3.061-15.308 3.7-23.367 8.163-25.599a2 2 0 0 1 2.683.894Z" clip-rule="evenodd"></path>
  <path fill="#BD6B34" fill-rule="evenodd" d="M32.86 11.053a1 1 0 0 1-.446 1.341c-3.091 1.546-9.397 8.16-6.563 22.327.648 3.24 2.978 6.285 5.684 8.774 2.69 2.474 5.623 4.282 7.253 5.07a1 1 0 1 1-.87 1.8c-1.8-.869-4.898-2.786-7.737-5.398-2.823-2.596-5.52-5.998-6.291-9.853-2.986-14.928 3.624-22.506 7.63-24.508a1 1 0 0 1 1.34.447Z" clip-rule="evenodd"></path>
  <path fill="#DA844B" fill-rule="evenodd" d="M13.114 38.51a2 2 0 0 1 2.552-1.22c.832.293 2.406.681 4.221.794 1.823.113 3.726-.062 5.324-.747a2 2 0 1 1 1.576 3.676c-2.376 1.019-4.967 1.198-7.147 1.063-2.189-.136-4.128-.599-5.306-1.015a2 2 0 0 1-1.22-2.551zm20.52-15.453a2 2 0 0 1 1.387 2.465c-.467 1.667-1.491 4.124-3.117 6.176-1.617 2.04-4.101 3.993-7.442 3.797a2 2 0 1 1 .235-3.993c1.485.087 2.845-.74 4.072-2.289 1.219-1.538 2.04-3.48 2.4-4.77a2 2 0 0 1 2.466-1.386z" clip-rule="evenodd"></path>
  <path fill="#DA844B" fill-rule="evenodd" d="M14.977 18.761a2 2 0 0 1 2.342 1.586c.257 1.337.934 3.367 2.068 5.007 1.13 1.636 2.49 2.596 4.128 2.596a2 2 0 1 1 0 4c-3.47 0-5.895-2.115-7.42-4.322-1.522-2.204-2.37-4.787-2.704-6.525a2 2 0 0 1 1.586-2.342zm16.597-.96a2 2 0 0 1 .188 2.822c-.562.642-1.528 1.488-2.746 2.145-1.22.66-2.846 1.21-4.657 1.009a2 2 0 1 1 .442-3.976c.743.083 1.541-.134 2.315-.552.775-.419 1.37-.957 1.636-1.26a2 2 0 0 1 2.822-.189z" clip-rule="evenodd"></path>
  <path fill="#DA844B" fill-rule="evenodd" d="M21.515 11.92a2 2 0 0 1 2 2c0 .391.057 1.1.228 1.808.184.76.43 1.213.606 1.39a2 2 0 0 1-2.829 2.828c-.959-.96-1.423-2.28-1.664-3.276a12.31 12.31 0 0 1-.34-2.75 2 2 0 0 1 2-2Z" clip-rule="evenodd"></path>
  <path fill="#FAA973" fill-rule="evenodd" d="M26.092 15.116a1 1 0 0 1 .417 1.351c-1.108 2.099-3.503 7.807-2.826 15.255a1 1 0 0 1-1.991.181c-.723-7.952 1.824-14.052 3.049-16.37a1 1 0 0 1 1.351-.417Z" clip-rule="evenodd"></path>
  <path fill="#DA844B" fill-rule="evenodd" d="M62.175 10.605a2 2 0 0 0 .894 2.684c2.634 1.316 8.787 7.45 6.03 21.236-.587 2.933-2.733 5.8-5.38 8.234-2.615 2.405-5.466 4.158-7.011 4.904a2 2 0 0 0 1.739 3.603c1.884-.91 5.065-2.882 7.98-5.563 2.881-2.65 5.761-6.23 6.594-10.393 3.061-15.308-3.7-23.367-8.163-25.599a2 2 0 0 0-2.683.894Z" clip-rule="evenodd"></path>
  <path fill="#BD6B34" fill-rule="evenodd" d="M64.07 11.053a1 1 0 0 0 .446 1.341c3.091 1.546 9.397 8.16 6.563 22.327-.648 3.24-2.978 6.285-5.683 8.774-2.69 2.474-5.624 4.282-7.254 5.07a1 1 0 0 0 .87 1.8c1.8-.869 4.898-2.786 7.737-5.398 2.824-2.596 5.52-5.998 6.291-9.853 2.986-14.928-3.624-22.506-7.63-24.508a1 1 0 0 0-1.34.447Z" clip-rule="evenodd"></path>
  <path fill="#DA844B" fill-rule="evenodd" d="M81.816 38.51a2 2 0 0 0-2.552-1.22c-.832.293-2.406.681-4.221.794-1.823.113-3.726-.062-5.324-.747a2 2 0 0 0-1.576 3.676c2.376 1.019 4.967 1.198 7.148 1.063 2.188-.136 4.127-.6 5.305-1.015a2 2 0 0 0 1.22-2.551zm-20.52-15.453a2 2 0 0 0-1.387 2.465c.467 1.667 1.491 4.124 3.117 6.176 1.617 2.04 4.101 3.993 7.442 3.797a2 2 0 0 0-.235-3.993c-1.485.087-2.845-.74-4.072-2.288-1.219-1.539-2.04-3.48-2.4-4.77a2 2 0 0 0-2.466-1.387z" clip-rule="evenodd"></path>
  <path fill="#DA844B" fill-rule="evenodd" d="M79.953 18.761a2 2 0 0 0-2.342 1.586c-.257 1.337-.934 3.367-2.067 5.007-1.13 1.636-2.49 2.596-4.13 2.596a2 2 0 1 0 0 4c3.47 0 5.896-2.115 7.42-4.322 1.523-2.204 2.371-4.787 2.705-6.525a2 2 0 0 0-1.586-2.342zm-16.597-1.96a2 2 0 0 0-.188 2.822c.562.642 1.528 1.488 2.746 2.145 1.22.66 2.846 1.21 4.657 1.009a2 2 0 0 0-.442-3.976c-.743.083-1.541-.134-2.314-.552-.776-.419-1.371-.957-1.637-1.26a2 2 0 0 0-2.822-.189z" clip-rule="evenodd"></path>
  <path fill="#DA844B" fill-rule="evenodd" d="M72.415 10.92a2 2 0 0 0-2 2c0 .391-.056 1.1-.228 1.808-.184.76-.43 1.213-.606 1.39a2 2 0 1 0 2.829 2.828c.959-.96 1.423-2.28 1.665-3.276.254-1.05.34-2.078.34-2.75a2 2 0 0 0-2-2Z" clip-rule="evenodd"></path>
  <path fill="#944F21" d="M17.484 49.11c7.664-5.11 15.966-1.656 19.16.71 2.838 2.27 2.128 4.73 1.419 5.676-9.935 2.839-17.86-3.075-20.58-6.386Z"></path>
  <path fill="#652E0A" fill-rule="evenodd" d="m37.864 48.234.029.023c1.785 1.429 2.64 3.089 2.783 4.724.136 1.558-.395 2.89-1.013 3.715l-.404.538-.647.185c-10.996 3.142-19.677-3.392-22.674-7.04l-1.402-1.708 1.838-1.225c8.676-5.784 17.946-1.837 21.46.766l.03.022Zm-20.38.876c.372.452.84.954 1.4 1.475 3.525 3.29 10.602 7.361 19.179 4.911.71-.946 1.419-3.406-1.42-5.677-2.95-2.185-10.263-5.3-17.403-1.73a16.32 16.32 0 0 0-1.756 1.02Z" clip-rule="evenodd"></path>
  <path fill="#944F21" d="M57.577 49.465c7.948-7.097 18.687-2.957 23.063 0-.591 1.3-3.194 4.4-8.87 6.386-5.677 1.987-11.827-.118-14.193-1.42v-4.966Z"></path>
  <path fill="#652E0A" fill-rule="evenodd" d="m83.16 48.754-.7 1.538c-.873 1.921-3.981 5.33-10.03 7.447-3.253 1.139-6.575 1.085-9.34.606-2.76-.478-5.099-1.403-6.477-2.16l-1.036-.57v-7.046l.668-.596c4.51-4.027 9.809-4.831 14.446-4.264 4.59.563 8.665 2.474 11.069 4.098l1.4.947Zm-3.456 2.096c.471-.554.777-1.035.936-1.386-4.376-2.956-15.115-7.096-23.063 0v4.968c2.366 1.3 8.516 3.406 14.193 1.42 3.924-1.374 6.378-3.279 7.715-4.754.077-.084.15-.167.219-.248Z" clip-rule="evenodd"></path>
  <path fill="#BD6B34" fill-rule="evenodd" d="M75.576 50.468a1 1 0 0 0-.956-1.043 38.426 38.426 0 0 0-6.454.312c-2.42.332-5.034.972-6.715 2.224a1 1 0 0 0 1.194 1.604c1.246-.928 3.418-1.52 5.792-1.846a36.436 36.436 0 0 1 6.096-.296 1 1 0 0 0 1.043-.955zm-53.124-.512a1 1 0 0 1 1.154-.817 38.42 38.42 0 0 1 6.243 1.671c2.294.836 4.713 2.015 6.092 3.595a1 1 0 1 1-1.507 1.315c-1.021-1.17-3.018-2.21-5.27-3.03a36.439 36.439 0 0 0-5.896-1.58 1 1 0 0 1-.816-1.154z" clip-rule="evenodd"></path>
  <path fill="#B3642F" d="M49.416 39.885c-19.455 0-18.804 22.826-15.966 29.449 9.58 1.42 29.094 3.619 30.514 1.064 1.774-3.193 7.45-30.513-14.547-30.513Z"></path>
  <path fill="#7A3C12" fill-rule="evenodd" d="m32.052 71.149-.44-1.027c-.833-1.943-1.434-4.864-1.598-8.082-.165-3.245.107-6.95 1.14-10.477s2.858-6.967 5.863-9.53c3.034-2.587 7.117-4.148 12.4-4.148 5.947 0 10.267 1.864 13.238 4.926 2.923 3.012 4.335 6.974 4.927 10.83.593 3.866.387 7.788-.07 10.93a36.477 36.477 0 0 1-.83 4.117c-.29 1.082-.623 2.057-.97 2.682-.336.605-.842.976-1.25 1.202-.418.232-.876.39-1.314.506-.874.23-1.94.36-3.084.428-2.304.138-5.274.052-8.427-.154-6.327-.413-13.659-1.325-18.48-2.04l-1.105-.163Zm1.398-1.815c-2.838-6.623-3.489-29.45 15.966-29.45 21.999 0 16.322 27.321 14.548 30.514-1.42 2.555-20.934.355-30.514-1.064Z" clip-rule="evenodd"></path>
  <path fill="#A75822" fill-rule="evenodd" d="M33.264 68.867c10.173 1.344 25.45 2.78 26.7.531 1.55-2.792 6.086-24.03-7.505-29.322 18.408 2.432 13.192 27.286 11.505 30.322-1.42 2.555-20.934.355-30.514-1.064a10.471 10.471 0 0 1-.186-.467Z" clip-rule="evenodd"></path>
  <path fill="#CB7941" fill-rule="evenodd" d="M42.575 43.413a1.5 1.5 0 0 1-.3 2.1c-1.43 1.072-4.786 4.694-5.802 9.959a1.5 1.5 0 1 1-2.946-.569c1.184-6.135 5.045-10.363 6.948-11.79a1.5 1.5 0 0 1 2.1.3Z" clip-rule="evenodd"></path>
  <path fill="#6B310A" d="M47.642 53.368c0 1.96-1.27 3.548-2.838 3.548s-2.839-1.589-2.839-3.548c0-1.96 1.271-3.548 2.839-3.548s2.838 1.588 2.838 3.548zm9.225 0c0 1.96-1.27 3.548-2.838 3.548s-2.838-1.589-2.838-3.548c0-1.96 1.27-3.548 2.838-3.548s2.838 1.588 2.838 3.548z"></path>
  <path fill="#FFEFB9" d="M32.085 63.657c5.677-5.393 12.064-2.247 14.547 0h9.935c13.128-6.032 16.676 4.258 9.935 14.192-6.742 9.935-21.998 9.225-28.03 6.032-6.032-3.193-13.483-13.483-6.387-20.224Z"></path>
  <path fill="#CBB56B" fill-rule="evenodd" d="M46.632 63.657h9.935c13.128-6.032 16.676 4.258 9.935 14.192-6.742 9.935-21.998 9.225-28.03 6.032-6.032-3.193-13.483-13.483-6.387-20.224 5.677-5.393 12.064-2.247 14.547 0Zm9.505-2H47.36c-1.52-1.196-3.819-2.44-6.506-2.843-3.181-.478-6.828.24-10.146 3.393-2.112 2.006-3.2 4.35-3.456 6.797-.251 2.406.313 4.785 1.282 6.921 1.916 4.224 5.6 7.923 9.002 9.724 3.453 1.828 9.206 2.828 14.929 2.124 5.762-.708 11.89-3.198 15.692-8.8 1.815-2.676 2.983-5.439 3.45-8.025.465-2.566.26-5.097-.87-7.147-1.17-2.125-3.21-3.503-5.871-3.851-2.48-.325-5.417.244-8.729 1.707Z" clip-rule="evenodd"></path>
  <path fill="#FFF7DD" fill-rule="evenodd" d="M34.81 63.77a1 1 0 0 1 .044 1.414c-.785.836-1.708 2.562-1.673 4.904.035 2.317 1.013 5.328 4.176 8.731a1 1 0 1 1-1.464 1.362c-3.437-3.697-4.668-7.165-4.712-10.063-.043-2.872 1.083-5.097 2.215-6.302a1 1 0 0 1 1.413-.045Z" clip-rule="evenodd"></path>
  <path fill="#F1DE9D" fill-rule="evenodd" d="M37.736 83.46c.247.152.493.292.736.421 6.032 3.193 21.288 3.903 28.03-6.032 4.767-7.026 4.389-14.229-.885-15.711 3.274 2.587 2.955 8.714-1.115 14.712-6.31 9.3-20.084 9.272-26.766 6.61Zm7.593-20.803a12.673 12.673 0 0 0-2.312-1.198c.64.394 1.186.81 1.615 1.198h.697Z" clip-rule="evenodd"></path>
  <path fill="#D94A1D" d="M59.706 67.205c0 4.899-4.766 10.29-10.644 10.29-5.879 0-10.645-5.391-10.645-10.29 0-4.899 4.766-8.16 10.645-8.16 5.878 0 10.644 3.261 10.644 8.16Z"></path>
  <path fill="#953416" fill-rule="evenodd" d="M58.015 75.589c-2.236 2.275-5.39 3.906-8.953 3.906-3.564 0-6.718-1.631-8.953-3.906-2.22-2.258-3.692-5.313-3.692-8.384 0-3.17 1.566-5.774 3.927-7.524 2.33-1.727 5.43-2.637 8.718-2.637 3.288 0 6.388.91 8.717 2.637 2.362 1.75 3.927 4.355 3.927 7.524 0 3.071-1.472 6.126-3.691 8.384Zm-8.953 1.906c5.878 0 10.644-5.391 10.644-10.29 0-4.899-4.766-8.16-10.644-8.16-5.879 0-10.645 3.261-10.645 8.16s4.766 10.29 10.645 10.29Z" clip-rule="evenodd"></path>
  <path fill="#EC683E" d="M50.572 63.622c.583 2.112-.927 4.373-3.372 5.047-2.446.675-4.901-.49-5.484-2.603-.584-2.113.926-4.373 3.372-5.048 2.445-.675 4.9.49 5.484 2.604Z"></path>
  <path fill="#FFF8F8" fill-rule="evenodd" d="M46.823 62.12a1 1 0 0 1-.255 1.39c-.265.183-.912.69-1.331 1.193a1 1 0 0 1-1.536-1.28c.58-.699 1.392-1.325 1.731-1.559a1 1 0 0 1 1.391.256Z" clip-rule="evenodd"></path>
  <path fill="#F3BC96" d="M44.269 52.436c0-.515-.325-.932-.725-.932-.4 0-.724.417-.724.932 0 .514.324.932.724.932.4 0 .725-.418.725-.932zm9.519-.15c0-.514-.324-.931-.724-.931-.4 0-.725.417-.725.932 0 .515.325.932.725.932.4 0 .724-.417.724-.932z"></path>
  <path fill="#DEC674" d="M64.063 78.75c0 .414-.378.75-.844.75-.466 0-.844-.336-.844-.75s.378-.75.844-.75c.466 0 .843.336.843.75zm-3.802-.505c0 .414-.378.75-.844.75-.466 0-.844-.336-.844-.75 0-.415.378-.75.844-.75.466 0 .844.335.844.75zm-1.688 4.474c0 .415-.377.75-.843.75-.466 0-.844-.335-.844-.75 0-.414.378-.75.844-.75.466 0 .843.336.843.75zm5.279-9.851c0 .258-.235.467-.525.467-.29 0-.525-.21-.525-.467 0-.258.235-.466.525-.466.29 0 .525.208.525.466zm5.251-4.317c0 .257-.235.466-.524.466-.29 0-.525-.209-.525-.466 0-.258.235-.467.525-.467.29 0 .524.21.524.467zm-3.156 2.001c0 .258-.235.467-.525.467-.29 0-.524-.209-.524-.467 0-.257.235-.466.524-.466.29 0 .525.209.525.466zm-7.693 9.842c0 .257-.234.466-.524.466-.29 0-.525-.209-.525-.466 0-.258.235-.467.525-.467.29 0 .524.21.524.467zm-2.53 3.343c0 .258-.236.467-.526.467-.29 0-.524-.209-.524-.467 0-.257.235-.466.524-.466.29 0 .525.209.525.466zm10.223-9.257c0 .414-.378.75-.844.75-.466 0-.843-.336-.843-.75 0-.415.377-.75.843-.75.466 0 .844.335.844.75zm-2.962 1.229c0 .563-.514 1.02-1.149 1.02-.634 0-1.148-.457-1.148-1.02 0-.564.514-1.022 1.148-1.022.635 0 1.149.458 1.149 1.022zm5.594-4.136c0 .564-.515 1.021-1.15 1.021-.633 0-1.148-.457-1.148-1.02 0-.565.514-1.022 1.149-1.022.634 0 1.149.457 1.149 1.021zm-6.576 9.375c0 .564-.514 1.021-1.148 1.021-.635 0-1.149-.457-1.149-1.02 0-.565.514-1.022 1.149-1.022.634 0 1.148.457 1.148 1.021z"></path>
</svg>
