<svg xmlns="http://www.w3.org/2000/svg" width="96" height="96" fill="none" id="sock">
  <g clip-path="url(#a)">
    <path fill="#E73434" d="m68.922 74.617 9.523-38.589c-1.171-1.936-21.75-6.23-30.893-8.136L41.82 59.198c-5.34-1.313-14.438-2.006-19.286-1.139-4.946.885-10.634.505-11.971 8.899-.948 5.945 5.733 8.79 9.376 10.029 7.127 2.425 22.947 7.188 33.502 8.24 10.356 1.03 14.569-6.2 15.481-10.61Z"></path>
    <path fill="#811313" fill-rule="evenodd" d="m80.586 35.702-9.713 39.359c-.532 2.532-1.989 5.83-4.807 8.383-2.895 2.622-7.102 4.342-12.824 3.772-10.801-1.075-26.81-5.907-33.947-8.336-1.867-.635-4.725-1.745-7.017-3.582-2.342-1.878-4.316-4.727-3.69-8.655.369-2.315 1.06-4.166 2.067-5.628 1.02-1.478 2.294-2.46 3.671-3.124 1.348-.65 2.774-.986 4.093-1.218a60.983 60.983 0 0 1 1.902-.294l.05-.007a53.73 53.73 0 0 0 1.811-.282c2.66-.475 6.333-.508 9.94-.275 2.794.18 5.65.527 8.103.993l5.729-31.292 2.006.419c4.567.951 12.028 2.507 18.497 4.07 3.23.78 6.25 1.57 8.553 2.296 1.146.36 2.163.72 2.955 1.07.394.175.78.367 1.114.58.282.18.757.512 1.077 1.041l.43.71ZM41.82 59.198c-.607-.15-1.263-.29-1.955-.423-5.4-1.028-13.034-1.485-17.33-.716-.63.113-1.273.205-1.917.298-4.409.633-8.888 1.276-10.055 8.6-.948 5.947 5.733 8.79 9.376 10.03 7.127 2.425 22.947 7.188 33.502 8.24 10.356 1.03 14.569-6.2 15.481-10.61l9.523-38.589c-1.094-1.807-19.109-5.672-28.934-7.727l-1.959-.409-5.732 31.306Z" clip-rule="evenodd"></path>
    <path fill="#48A2B6" fill-rule="evenodd" d="M53 6a2 2 0 0 1 2 2v18.813a2 2 0 1 1-4 0V8a2 2 0 0 1 2-2Z" clip-rule="evenodd"></path>
    <path fill="#FB5B5B" fill-rule="evenodd" d="M50.218 38.68a2 2 0 0 1 1.476 2.413L47.57 58.218a2 2 0 1 1-3.888-.937l4.125-17.124a2 2 0 0 1 2.412-1.476Z" clip-rule="evenodd"></path>
    <path fill="#C42727" fill-rule="evenodd" d="m72.077 33.519-9.155 37.098c-.912 4.41-5.125 11.64-15.481 10.61-10.555-1.052-26.375-5.816-33.502-8.24a32.86 32.86 0 0 1-1.903-.71c2.028 2.48 5.582 3.92 7.903 4.71 7.127 2.425 22.947 7.188 33.502 8.24 10.356 1.03 14.569-6.2 15.481-10.61l9.523-38.589c-.385-.637-2.875-1.53-6.368-2.51Z" clip-rule="evenodd"></path>
    <path fill="#AE1E1E" fill-rule="evenodd" d="m78.445 36.028-9.523 38.589c-.087.42-.204.867-.354 1.33l7.877-31.919c-1.15-1.9-21-6.073-30.377-8.028l1.484-8.108c9.143 1.906 29.722 6.2 30.893 8.136Z" clip-rule="evenodd"></path>
    <path fill="#E99345" fill-rule="evenodd" d="m69.651 71.654-.729 2.963c-.912 4.41-5.125 11.64-15.481 10.61-3.046-.304-6.53-.916-10.117-1.693C44.894 75.251 51.988 69 60.5 69c3.355 0 6.489.97 9.151 2.654Z" clip-rule="evenodd"></path>
    <path fill="#CA7B32" fill-rule="evenodd" d="M44.067 80.796a18.257 18.257 0 0 0-.743 2.738c3.587.776 7.071 1.389 10.117 1.692 10.356 1.031 14.569-6.2 15.481-10.61l.729-2.962a17.093 17.093 0 0 0-6.385-2.43l-.344 1.393c-.912 4.41-5.125 11.64-15.481 10.61a66.367 66.367 0 0 1-3.374-.43Z" clip-rule="evenodd"></path>
    <path fill="#FFAF66" fill-rule="evenodd" d="M50.922 71.931c-3.914 2.661-6.183 6.97-6.633 10.304a1 1 0 1 1-1.982-.267c.523-3.878 3.091-8.7 7.49-11.69 4.466-3.036 10.732-4.131 18.467-.65a1 1 0 0 1-.821 1.823c-7.147-3.216-12.672-2.136-16.52.48Z" clip-rule="evenodd"></path>
    <path fill="#CEFCEB" d="M42.678 22.323a5 5 0 0 1 5.79-4.06l32.57 5.713a5 5 0 0 1 4.06 5.789l-.612 3.49a5 5 0 0 1-5.789 4.062l-32.57-5.714a5 5 0 0 1-4.06-5.79l.611-3.49Z"></path>
    <path fill="#79DAB8" fill-rule="evenodd" d="m48.813 16.292 32.57 5.714a7 7 0 0 1 5.685 8.104l-.612 3.491a7 7 0 0 1-8.105 5.685l-32.57-5.714a7 7 0 0 1-5.685-8.104l.613-3.49a7 7 0 0 1 8.104-5.686Zm-.346 1.97a5 5 0 0 0-5.788 4.06l-.613 3.492a5 5 0 0 0 4.06 5.789l32.571 5.713a5 5 0 0 0 5.789-4.06l.612-3.491a5 5 0 0 0-4.06-5.789l-32.57-5.714Z" clip-rule="evenodd"></path>
    <path fill="#9FF3F3" fill-rule="evenodd" d="M47.46 28.614a1.5 1.5 0 0 1 1.738-1.216l31.749 5.605a1.5 1.5 0 0 1-.522 2.955l-31.748-5.606a1.5 1.5 0 0 1-1.217-1.738Z" clip-rule="evenodd"></path>
    <path fill="#fff" fill-rule="evenodd" d="M45.337 20.758a1.5 1.5 0 0 1 1.745-1.206l12.5 2.285a1.5 1.5 0 1 1-.54 2.951l-12.5-2.285a1.5 1.5 0 0 1-1.205-1.745Z" clip-rule="evenodd"></path>
    <path fill="#811313" fill-rule="evenodd" d="M47.114 42.82c-1.021.121-2.015.549-2.597.9a1 1 0 0 1-1.034-1.713c.768-.462 2.03-1.011 3.394-1.174 1.372-.164 2.996.053 4.224 1.34 2.023 2.12 4.22 2.233 6.163 2.027.424-.046.913-.174 1.505-.342l.205-.06c.514-.146 1.09-.312 1.66-.42 1.306-.245 2.907-.243 4.117 1.164.877 1.02 1.324 1.451 1.84 1.68.507.224 1.208.304 2.727.194l.491-.037a28.128 28.128 0 0 1 1.608-.094c.651-.011 1.307.03 1.938.23 1.353.428 2.288 1.473 3.082 3.268a1 1 0 1 1-1.83.809c-.677-1.534-1.275-1.987-1.854-2.17-.335-.105-.745-.147-1.301-.137-.432.007-.898.043-1.448.085-.172.013-.352.027-.542.04-1.548.113-2.687.081-3.682-.36-.987-.437-1.705-1.226-2.546-2.204-.507-.59-1.174-.7-2.23-.502-.47.089-.952.227-1.476.377l-.212.06c-.577.165-1.222.342-1.84.407-2.23.237-5.183.13-7.821-2.634-.636-.666-1.526-.856-2.54-.735Z" clip-rule="evenodd"></path>
    <path fill="#BEC11F" fill-rule="evenodd" d="M48.542 41.654a6.822 6.822 0 0 0-2.425.788 1 1 0 0 1-.984-1.741 8.816 8.816 0 0 1 3.187-1.034c1.277-.143 2.808.041 3.979 1.19 1.874 1.841 3.922 1.947 5.748 1.765.397-.04.854-.152 1.408-.3l.193-.052c.48-.129 1.022-.274 1.555-.369 1.214-.213 2.726-.222 3.883 1.04.82.893 1.229 1.261 1.7 1.457.471.195 1.127.266 2.55.17l.46-.033c.529-.038 1.041-.075 1.507-.083.61-.01 1.224.027 1.817.203 1.278.378 2.174 1.313 2.932 2.918a1 1 0 0 1-1.809.854c-.621-1.317-1.16-1.697-1.691-1.855-.312-.092-.695-.128-1.217-.12-.404.007-.84.038-1.356.075l-.507.036c-1.449.098-2.517.07-3.453-.318-.935-.389-1.618-1.092-2.407-1.952-.45-.492-1.063-.598-2.062-.422-.44.078-.89.198-1.38.33l-.199.053c-.54.145-1.146.3-1.725.358-2.08.207-4.857.119-7.348-2.327-.576-.565-1.4-.738-2.356-.63Z" clip-rule="evenodd"></path>
    <path fill="#B86A0F" d="M53.075 82.192a.97.97 0 1 1-1.697-.94.97.97 0 0 1 1.697.94zm4.264-.593a.97.97 0 1 1-1.697-.94.97.97 0 0 1 1.697.94zm10.503-6.932a1.31 1.31 0 1 1-2.29-1.268 1.31 1.31 0 0 1 2.29 1.268zm-18.184 5.465a.982.982 0 1 1-1.718-.951.982.982 0 0 1 1.718.951zm15.01-3.68a2.037 2.037 0 1 1-3.563-1.974 2.037 2.037 0 0 1 3.563 1.973zm-3.482-4.424a1.31 1.31 0 1 1-2.291-1.268 1.31 1.31 0 0 1 2.29 1.268zm.589 8.928a1.31 1.31 0 1 1-2.291-1.268 1.31 1.31 0 0 1 2.29 1.268zm-3.383-3.68a.794.794 0 1 1-1.39-.769.794.794 0 0 1 1.39.77zm-3.619.852a1.31 1.31 0 1 1-2.29-1.269 1.31 1.31 0 0 1 2.29 1.269zm2.332-3.809a1.31 1.31 0 1 1-2.29-1.268 1.31 1.31 0 0 1 2.29 1.268zm-6.112 2.118a.982.982 0 1 1-1.719-.952.982.982 0 0 1 1.719.952z"></path>
    <path fill="#3DB7D1" fill-rule="evenodd" d="M58.957 23.363a1 1 0 0 1 .832 1.144l-.916 5.816a1 1 0 1 1-1.976-.31l.917-5.817a1 1 0 0 1 1.143-.833Z" clip-rule="evenodd"></path>
    <path fill="#3DB7D1" fill-rule="evenodd" d="M61.944 25.483a1 1 0 0 1-.51 1.318l-5.388 2.378a1 1 0 1 1-.807-1.83l5.387-2.377a1 1 0 0 1 1.318.51Z" clip-rule="evenodd"></path>
    <path fill="#3DB7D1" fill-rule="evenodd" d="M61.15 29.99a1 1 0 0 1-1.414.03l-4.25-4.075a1 1 0 0 1 1.383-1.443l4.25 4.075a1 1 0 0 1 .03 1.414zm9.764-3.828a1 1 0 0 1 .022 1.414l-4.098 4.228a1 1 0 1 1-1.436-1.392l4.098-4.228a1 1 0 0 1 1.414-.022z" clip-rule="evenodd"></path>
    <path fill="#3DB7D1" fill-rule="evenodd" d="M72.136 29.615a1 1 0 0 1-1.177.784l-5.773-1.158a1 1 0 1 1 .393-1.961l5.774 1.158a1 1 0 0 1 .783 1.177Z" clip-rule="evenodd"></path>
    <path fill="#3DB7D1" fill-rule="evenodd" d="M68.89 32.843a1 1 0 0 1-1.172-.79l-1.129-5.779a1 1 0 1 1 1.963-.383l1.129 5.779a1 1 0 0 1-.79 1.173zm12.028-2.362a1 1 0 0 1-.554 1.3l-4.468 1.8a1 1 0 1 1-.747-1.855l4.468-1.8a1 1 0 0 1 1.3.555z" clip-rule="evenodd"></path>
    <path fill="#3DB7D1" fill-rule="evenodd" d="M80.664 33.64a1 1 0 0 1-1.394.239l-3.93-2.783a1 1 0 1 1 1.155-1.632l3.93 2.783a1 1 0 0 1 .24 1.394Z" clip-rule="evenodd"></path>
    <path fill="#3DB7D1" fill-rule="evenodd" d="M76.977 35.048a1 1 0 0 1-.752-1.198l1.076-4.695a1 1 0 0 1 1.95.447l-1.076 4.695a1 1 0 0 1-1.198.751zm-24.168-11.55a1 1 0 0 1-.554 1.3l-4.468 1.8a1 1 0 1 1-.747-1.855l4.468-1.8a1 1 0 0 1 1.3.555z" clip-rule="evenodd"></path>
    <path fill="#3DB7D1" fill-rule="evenodd" d="M52.555 26.658a1 1 0 0 1-1.394.238l-3.93-2.783a1 1 0 1 1 1.155-1.632l3.93 2.783a1 1 0 0 1 .24 1.394Z" clip-rule="evenodd"></path>
    <path fill="#3DB7D1" fill-rule="evenodd" d="M48.868 28.065a1 1 0 0 1-.751-1.198l1.075-4.695a1 1 0 0 1 1.95.447l-1.076 4.695a1 1 0 0 1-1.198.751Z" clip-rule="evenodd"></path>
    <path fill="#FB5B5B" d="M41.25 65c0 3.383-5.596 3.875-12.5 3.875s-12.5-.492-12.5-3.875 5.596-6.125 12.5-6.125 12.5 2.742 12.5 6.125Z"></path>
    <path fill="#FFADAD" fill-rule="evenodd" d="M26.26 60.261a40.065 40.065 0 0 1 3.92-.073 1.5 1.5 0 0 1-.11 2.998c-.795-.029-2.159-.03-3.608.068-1.472.1-2.924.294-3.952.615a1.5 1.5 0 0 1-.895-2.863c1.372-.429 3.107-.641 4.645-.745Z" clip-rule="evenodd"></path>
  </g>
  <defs>
    <clipPath id="a">
      <path fill="#fff" d="M0 0h96v96H0z"></path>
    </clipPath>
  </defs>
</svg>
