<svg xmlns="http://www.w3.org/2000/svg" width="96" height="96" fill="none" id="star">
  <path fill="#CD9220" d="m39.306 84.433 5.66-19.845a1 1 0 0 1 .414-.563l2.938-1.922a1 1 0 0 1 1.546.88l-.99 22.495a.977.977 0 0 1-.889.937c-4.04.337-6.841-.338-8.221-.928-.407-.173-.579-.629-.458-1.054Z"></path>
  <path fill="#915117" fill-rule="evenodd" d="m45.36 63.995-1.075-1.643 2.938-1.923 1.095 1.674-2.938 1.922a1 1 0 0 0-.414.563l-5.66 19.845c-.12.425.052.88.458 1.054l-.786 1.84c-1.49-.637-1.943-2.222-1.595-3.442l5.66-19.846a3 3 0 0 1 1.242-1.687l1.075 1.643Zm-5.596 21.492-.786 1.84c1.72.734 4.852 1.441 9.174 1.08 1.528-.127 2.655-1.38 2.72-2.841l.99-22.495c.108-2.442-2.594-3.98-4.64-2.642l1.096 1.674a1 1 0 0 1 1.546.88l-.99 22.495a.977.977 0 0 1-.889.937c-4.04.337-6.841-.338-8.221-.928Z" clip-rule="evenodd"></path>
  <path fill="#BA8111" fill-rule="evenodd" d="M44.881 86.484c.935.04 1.97.025 3.105-.07a.977.977 0 0 0 .888-.936l.99-22.495a1 1 0 0 0-1.546-.88l-.566.37c.078.148.12.321.112.51l-.99 22.495a.977.977 0 0 1-.889.937c-.379.031-.747.054-1.104.069Z" clip-rule="evenodd"></path>
  <path fill="#995E05" fill-rule="evenodd" d="m42.958 71.626.23-.001c2.2 0 4.307.38 6.248 1.073l.428-9.715a1 1 0 0 0-1.546-.88l-2.938 1.922a1 1 0 0 0-.414.563l-2.008 7.038Z" clip-rule="evenodd"></path>
  <path fill="#FFE24B" d="m18.338 33.068 18.888-2.045a1 1 0 0 0 .703-.408l6.945-9.592 6.216-8.584a1 1 0 0 1 1.713.158l9.61 20.28a1 1 0 0 0 .615.529l18.194 5.47a1 1 0 0 1 .356 1.723l-16.36 13.777a1 1 0 0 0-.35.868l1.946 18.872a1 1 0 0 1-1.527.949l-17.64-11.086a1 1 0 0 0-.9-.083l-19.372 7.667a1 1 0 0 1-1.327-1.213l5.37-18.196a1 1 0 0 0-.186-.917l-13.56-16.541a1 1 0 0 1 .666-1.628Z"></path>
  <path fill="#D97D11" fill-rule="evenodd" d="m36.57 29.082 12.9-17.816c1.337-1.847 4.164-1.586 5.14.475l9.42 19.877 17.768 5.343c2.283.686 2.892 3.632 1.069 5.168L66.91 55.565l1.892 18.346c.257 2.487-2.463 4.178-4.58 2.847l1.064-1.693a1 1 0 0 0 1.527-.95l-1.946-18.871a1 1 0 0 1 .35-.868L81.578 40.6a1 1 0 0 0-.356-1.723l-18.194-5.47a1 1 0 0 1-.616-.53l-9.609-20.279a1 1 0 0 0-1.713-.158L37.929 30.615a1 1 0 0 1-.703.408l-18.888 2.045a1 1 0 0 0-.666 1.628l13.56 16.541a1 1 0 0 1 .186.917l-5.37 18.196a1 1 0 0 0 1.327 1.213l.736 1.86c-2.325.92-4.689-1.24-3.981-3.639l5.22-17.688-13.224-16.132c-1.512-1.844-.373-4.628 1.997-4.885l18.446-1.997Zm10.442 36.86 17.21 10.816 1.065-1.693-17.64-11.086a1 1 0 0 0-.9-.083l-19.372 7.667.736 1.86 18.9-7.48Z" clip-rule="evenodd"></path>
  <path fill="#F6D737" d="m29.244 37.107 10.66-1.154a1 1 0 0 0 .703-.408l4.145-5.724 3.414-4.716a1 1 0 0 1 1.714.158l5.519 11.648a1 1 0 0 0 .616.53l10.269 3.087a1 1 0 0 1 .356 1.723l-9.294 7.827a1 1 0 0 0-.35.868l1.086 10.538a1 1 0 0 1-1.527.95l-9.941-6.248a1 1 0 0 0-.9-.083l-10.918 4.32a1 1 0 0 1-1.328-1.212l3-10.161a1 1 0 0 0-.187-.917l-7.703-9.398a1 1 0 0 1 .666-1.628Z"></path>
  <path fill="#FFE24B" d="m33.722 38.11 7.096-.768a1 1 0 0 0 .702-.408l2.93-4.047 2.201-3.04a1 1 0 0 1 1.714.159l3.746 7.907a1 1 0 0 0 .616.53l6.835 2.054a1 1 0 0 1 .356 1.722l-6.232 5.249a1 1 0 0 0-.35.867l.714 6.928a1 1 0 0 1-1.527.949l-6.606-4.151a1 1 0 0 0-.9-.083l-7.253 2.87a1 1 0 0 1-1.327-1.212l1.97-6.68a1 1 0 0 0-.185-.916l-5.166-6.302a1 1 0 0 1 .666-1.628Z"></path>
  <path fill="#E3C731" fill-rule="evenodd" d="m26.998 67.13-.95 3.22a1 1 0 0 0 1.327 1.213l19.372-7.667a1 1 0 0 1 .9.083l17.64 11.086a1 1 0 0 0 1.527-.95l-1.946-18.871a1 1 0 0 1 .35-.868L81.578 40.6a1 1 0 0 0-.356-1.723l-3.803-1.143-16.2 13.643a1 1 0 0 0-.352.868l1.947 18.872a1 1 0 0 1-1.527.949l-17.64-11.086a1 1 0 0 0-.9-.083L26.999 67.13ZM61.61 31.181l-8.806-18.585a1 1 0 0 0-1.713-.158l-.569.784 7.891 16.653a1 1 0 0 0 .616.53l2.581.776Z" clip-rule="evenodd"></path>
  <path fill="#FFF9D8" fill-rule="evenodd" d="M44.6 25.2a1 1 0 0 1 .2 1.4l-6 8a1 1 0 0 1-.71.396l-5.5.5a1 1 0 0 1-.18-1.992l5.057-.46L43.2 25.4a1 1 0 0 1 1.4-.2Z" clip-rule="evenodd"></path>
  <path fill="#DBA416" d="M62 64a1 1 0 1 1-2 0 1 1 0 0 1 2 0zm1-4a1 1 0 1 1-2 0 1 1 0 0 1 2 0zm1-8a1 1 0 1 1-2 0 1 1 0 0 1 2 0zm-4.656-.422a.578.578 0 1 1-1.157 0 .578.578 0 0 1 1.157 0zM64 48.266a.578.578 0 1 1-1.156 0 .578.578 0 0 1 1.156 0zm-2.313 7a.953.953 0 1 1-1.906 0 .953.953 0 0 1 1.907 0zm10.407-12.034a.578.578 0 1 1-1.157 0 .578.578 0 0 1 1.157 0zm4.5-.187a.578.578 0 1 1-1.157 0 .578.578 0 0 1 1.157 0zm-4.125 2.877a.766.766 0 1 1-1.532 0 .766.766 0 0 1 1.532 0zM64.156 57A.578.578 0 1 1 63 57a.578.578 0 0 1 1.156 0zm-5 1.844a.578.578 0 1 1-1.156 0 .578.578 0 0 1 1.156 0zm5.782 8.343a.578.578 0 1 1-1.157 0 .578.578 0 0 1 1.157 0zM58.188 55.5a1.188 1.188 0 1 1-2.376 0 1.188 1.188 0 0 1 2.376 0zM69 48.5a1.5 1.5 0 1 1-3 0 1.5 1.5 0 0 1 3 0z"></path>
</svg>
